<svg width="204" height="53" viewBox="0 0 204 53" fill="none" xmlns="http://www.w3.org/2000/svg">
<path d="M84.1079 25.8807H90.6621C90.7235 25.8807 90.7543 25.9102 90.7543 25.9693L90.7472 28.4506C90.7472 28.5097 90.7188 28.5392 90.6621 28.5392L84.1079 28.5428C83.9331 28.5428 83.8456 28.629 83.8456 28.8015L83.8421 37.2238C83.8421 37.2473 83.8324 37.2698 83.8151 37.2864C83.7978 37.303 83.7744 37.3124 83.7499 37.3124L81.0985 37.3159C81.075 37.3159 81.0524 37.3066 81.0358 37.29C81.0192 37.2733 81.0099 37.2508 81.0099 37.2273C80.991 32.2269 80.9992 27.5396 81.0347 23.1654C81.0701 19.1954 83.7464 16.8807 87.6172 17.0047C88.6452 17.0378 89.653 17.0378 90.6408 17.0047C90.7117 17.0024 90.7472 17.0378 90.7472 17.1111L90.7543 19.5888C90.7543 19.6044 90.7511 19.6197 90.7448 19.6339C90.7385 19.6482 90.7292 19.661 90.7176 19.6717C90.706 19.6823 90.6922 19.6905 90.6772 19.6958C90.6622 19.701 90.6462 19.7032 90.6302 19.7023C89.0185 19.6172 87.6775 19.6432 86.607 19.7803C83.6826 20.1525 83.7003 23.2399 83.8563 25.6432C83.8681 25.8015 83.952 25.8807 84.1079 25.8807Z" fill="#211F20"/>
<path d="M145.332 24.3458C146.5 23.3344 147.954 22.935 149.696 23.1477C152.843 23.5281 154.429 25.4009 154.453 28.766C154.474 31.7412 154.476 34.5687 154.46 37.2485C154.46 37.3525 154.409 37.4045 154.307 37.4045L151.982 37.4009C151.941 37.4009 151.902 37.385 151.873 37.3565C151.844 37.328 151.827 37.2893 151.826 37.2485C151.791 35.0295 151.792 32.4372 151.83 29.4714C151.858 27.5963 151.259 26.0047 149.168 25.7105C146.796 25.3773 145.222 27.0787 145.183 29.3828C145.146 31.6892 145.146 34.3206 145.183 37.2769C145.183 37.3596 145.143 37.4009 145.063 37.4009H142.681C142.622 37.4009 142.592 37.3714 142.592 37.3123V17.1961C142.592 17.0756 142.651 17.0165 142.769 17.0189H144.985C145.103 17.0212 145.162 17.0803 145.162 17.1961V24.2713C145.162 24.4202 145.219 24.445 145.332 24.3458Z" fill="#211F20"/>
<path d="M95.5466 21.8823C96.4158 21.8823 97.1205 21.1777 97.1205 20.3085C97.1205 19.4393 96.4158 18.7346 95.5466 18.7346C94.6774 18.7346 93.9728 19.4393 93.9728 20.3085C93.9728 21.1777 94.6774 21.8823 95.5466 21.8823Z" fill="#211F20"/>
<path d="M160.298 28.4186C159.167 30.7262 160.372 33.7215 162.822 34.4623C164.647 35.0117 166.558 34.441 168.185 33.4024C169.181 32.7679 170.493 33.7179 170.071 34.9196C169.908 35.3757 169.513 35.7939 168.887 36.1744C166.363 37.7057 163.909 37.9834 161.524 37.0074C159.469 36.1638 157.919 34.278 157.356 32.1831C156.253 28.0996 158.433 24.4733 162.411 23.1724C165.512 22.1622 168.522 23.1618 169.925 26.1677C171.584 29.723 167.979 32.9735 164.545 31.864C163.786 31.6194 162.953 31.0417 162.754 30.2299C162.591 29.5753 162.789 29.0602 163.346 28.6844C164.062 28.1988 164.747 28.5994 165.303 29.0885C166.303 29.9747 168.252 28.4469 167.302 27.146C166.448 25.9763 164.871 25.4765 163.502 25.8664C161.985 26.2965 160.917 27.1472 160.298 28.4186Z" fill="#211F20"/>
<path d="M183.158 28.7979C183.72 28.2496 183.735 27.6565 183.2 27.0184C182.353 26.0082 181.02 25.48 179.677 25.8239C177.057 26.4938 175.352 28.7128 176.04 31.3962C176.99 35.0862 181.194 35.4797 183.945 33.5265C185.448 32.4596 187.139 34.3843 185.593 35.6463C182.396 38.2587 177.561 38.3332 174.835 34.9976C172.474 32.1016 172.435 28.0748 174.977 25.2886C176.441 23.6793 178.943 22.6833 181.123 22.7932C182.737 22.8735 184.088 23.5848 185.175 24.9271C188.411 28.922 184.055 33.8987 179.773 31.499C177.515 30.2335 179.376 27.3587 181.052 28.8865C181.745 29.5198 182.447 29.4903 183.158 28.7979Z" fill="#211F20"/>
<path d="M197.641 34.4659C198.858 34.3785 199.743 33.8196 200.296 32.7892C201.831 29.9322 200.711 26.7739 197.606 25.87C194.036 24.8349 191.764 28.6384 191.771 31.6514C191.778 35.4844 191.778 39.4379 191.771 43.512C191.771 43.5364 191.761 43.5599 191.744 43.5771C191.727 43.5944 191.703 43.6041 191.679 43.6041L189.215 43.6006C189.161 43.6006 189.134 43.5734 189.134 43.5191C189.112 39.0646 189.114 34.7636 189.137 30.6163C189.154 27.8586 190.119 25.7766 192.033 24.3706C195.227 22.0275 200.002 22.5982 202.348 25.8168C203.62 27.5608 204.056 29.5234 203.656 31.7046C203.118 34.6289 201.175 36.8869 198.141 37.1315C196.81 37.2402 195.701 36.9555 194.812 36.2772C192.402 34.4411 192.842 30.4958 195.613 29.1028C198.357 27.7239 199.332 31.1906 197.223 31.5628C195.443 31.8818 195.706 34.6006 197.641 34.4659Z" fill="#211F20"/>
<path d="M110.069 29.1948C110.066 24.4378 103.512 24.3386 103.444 29.2834C103.411 31.7151 103.408 34.3382 103.434 37.1527C103.436 37.2614 103.383 37.3158 103.274 37.3158L100.928 37.3122C100.888 37.3122 100.849 37.2962 100.821 37.2678C100.793 37.2393 100.776 37.2005 100.775 37.1598C100.749 34.7281 100.752 32.1251 100.782 29.3508C100.813 26.8057 101.726 24.9932 103.522 23.9132C104.985 23.0341 106.572 22.7884 108.283 23.1759C111.526 23.9097 112.806 26.5788 112.753 29.7088C112.715 31.9585 112.711 34.4552 112.742 37.1988C112.744 37.2791 112.705 37.3193 112.625 37.3193L110.172 37.3087C110.101 37.3087 110.066 37.272 110.066 37.1988C110.071 34.4883 110.072 31.8203 110.069 29.1948Z" fill="#211F20"/>
<path d="M124.599 29.2445C124.592 24.4237 117.935 24.2996 117.949 29.4288C117.958 31.929 117.961 34.5037 117.956 37.1527C117.956 37.2591 117.903 37.3122 117.797 37.3122L115.461 37.3158C115.34 37.3158 115.281 37.2543 115.283 37.1315C115.326 35.2669 115.322 33.1909 115.273 30.9034C115.23 28.9751 115.387 27.5608 115.744 26.6604C116.708 24.2323 118.874 22.9456 121.469 23.0165C125.648 23.1263 127.353 26.228 127.286 30.035C127.241 32.6084 127.238 34.9751 127.279 37.135C127.279 37.1584 127.275 37.1817 127.266 37.2034C127.257 37.2251 127.244 37.2449 127.228 37.2614C127.211 37.278 127.192 37.291 127.17 37.2997C127.148 37.3085 127.125 37.3127 127.101 37.3122H124.762C124.656 37.3099 124.602 37.2567 124.602 37.1527C124.605 34.4493 124.604 31.8132 124.599 29.2445Z" fill="#211F20"/>
<path d="M96.8228 23.4031H94.4266C94.3541 23.4031 94.2954 23.4618 94.2954 23.5342V37.1813C94.2954 37.2538 94.3541 37.3125 94.4266 37.3125H96.8228C96.8952 37.3125 96.9539 37.2538 96.9539 37.1813V23.5342C96.9539 23.4618 96.8952 23.4031 96.8228 23.4031Z" fill="#211F20"/>
<path d="M137.846 34.2603C138.693 32.963 136.811 32.1973 135.9 31.9386C134.572 31.5652 133.261 31.1339 131.969 30.6447C130.182 29.9712 129.066 28.6101 129.321 26.586C129.654 23.9771 131.898 23.3426 134.195 23.3781C136.118 23.4088 138.081 23.4124 140.083 23.3887C140.161 23.3887 140.2 23.4277 140.2 23.5057V25.6857C140.2 25.7495 140.168 25.7814 140.104 25.7814C138.164 25.8003 136.176 25.7991 134.142 25.7779C133.302 25.7708 132.036 25.8771 132.05 26.9901C132.086 29.5955 141.784 28.2237 140.724 34.2497C140.295 36.6955 138.268 37.369 135.942 37.33C133.671 37.2946 131.493 37.2934 129.406 37.3265C129.335 37.3265 129.3 37.2911 129.3 37.2202L129.296 34.9197C129.296 34.8582 129.327 34.8275 129.388 34.8275C131.657 34.8346 133.873 34.8346 136.038 34.8275C136.758 34.8239 137.424 34.9055 137.846 34.2603Z" fill="#211F20"/>
<path d="M31.0549 2.39012C30.5257 1.78176 29.8829 1.46525 29.1266 1.44059C27.1319 1.37276 25.3546 2.94813 24.6209 4.79171C24.4405 5.24644 24.4344 5.7397 24.3172 6.21447C24.2186 6.61833 23.7453 6.69387 23.4309 6.53201C23.2819 6.45494 23.1729 6.31826 23.1041 6.12199C22.2794 3.77898 20.2401 2.43637 17.8524 3.38436C17.2995 3.60325 16.818 3.91873 16.408 4.33082" stroke="#005ABC" stroke-width="2"/>
<path d="M16.4081 4.33081C15.6605 5.09383 15.3106 5.9925 15.3815 7.04839C15.4385 7.90698 14.3256 8.09658 14.116 7.3089C13.652 5.55781 12.0211 4.57282 10.2639 5.10924C8.15978 5.75357 7.38443 7.86999 7.68809 9.92629C7.72509 10.1837 7.63106 10.4565 7.39522 10.5907C5.31425 11.7714 3.79438 13.6643 2.7801 15.8146C2.7503 15.8763 2.75904 15.8989 2.80631 15.8825" stroke="#908F90" stroke-width="2"/>
<path d="M2.80655 15.8826C2.76545 15.9329 2.73668 15.9756 2.72023 16.0105C1.83647 17.9024 1.36478 19.8832 1.30518 21.9528C1.26613 23.3206 1.44237 24.5163 1.8339 25.5398C3.45859 29.7849 7.98276 28.0215 10.6911 26.1949C11.152 25.8851 11.8071 25.6554 11.9736 26.46C12.0075 26.6255 11.9782 26.7842 11.8857 26.9363C11.2835 27.929 11.0112 29.0101 11.0688 30.1796C11.0698 30.205 11.0755 30.2306 11.0857 30.2551L11.1705 30.4555" stroke="#005ABC" stroke-width="2"/>
<path d="M11.17 30.4555C11.1484 30.4432 11.1299 30.4432 11.1145 30.4555C11.0929 30.472 11.0847 30.493 11.0899 30.5187C11.393 32.1023 12.3133 33.0642 13.8506 33.4043C14.0993 33.4598 14.3423 33.486 14.5797 33.483C15.1994 33.4752 15.4938 33.9146 15.2549 34.4849C14.5196 36.2514 14.8233 38.6823 16.448 39.937" stroke="#908F90" stroke-width="2"/>
<path d="M16.448 39.937C17.0204 40.3553 17.6652 40.5808 18.3825 40.6137C18.9035 40.6373 19.4461 40.6153 20.0103 40.5474C20.633 40.4719 20.6454 41.1455 20.5467 41.5386C20.1059 43.2671 19.8387 44.9257 19.7452 46.5144C19.6481 48.1514 19.8947 51.8787 22.5121 51.4964C23.9888 51.2806 25.2975 50.0659 26.0251 48.8374C27.0619 47.0904 27.2377 45.2704 26.5522 43.3775C26.375 42.8858 26.4659 42.3879 27.1056 42.3694C27.2433 42.3653 27.3517 42.4039 27.4309 42.485C28.4112 43.486 29.6095 44.083 31.0255 44.2762" stroke="#005ABC" stroke-width="2"/>
<path d="M31.0255 44.2761C31.9257 44.4703 32.7047 44.3819 33.3624 44.011C34.1454 43.5686 34.4167 42.7608 34.4105 41.9069C34.4075 41.2086 35.3108 41.0036 35.6283 41.6032C36.3821 43.0306 38.2087 45.7883 40.1987 44.6229C41.1472 44.067 41.8023 43.193 42.1641 42.0009C42.2997 41.5539 41.9791 40.9697 42.5941 40.7585C42.9779 40.6259 43.2785 40.8279 43.4496 41.1546C44.2173 42.6221 45.4304 43.9339 46.9194 44.4641C48.2718 44.9461 49.4988 44.8279 50.6004 44.1096C51.066 43.8075 51.3516 43.4083 51.4575 42.9119C51.6563 41.9917 52.9527 42.3061 52.686 43.2803C52.2215 44.9718 51.9672 46.5759 51.923 48.0927C51.8942 49.0392 52.0304 49.8705 52.3315 50.5868C52.9357 52.0234 54.4032 51.9094 55.5192 51.2419C58.4942 49.4646 60.3008 45.6403 58.4094 42.3847C58.0626 41.7866 58.5543 41.2256 59.1863 41.3967C60.27 41.688 61.5201 41.4922 62.3987 40.9111C64.0635 39.8105 64.6369 37.6941 63.8307 35.8829C63.6304 35.4281 62.9937 34.8054 63.4793 34.3229C63.8662 33.9391 64.4257 34.3137 64.8604 34.3738C65.6764 34.4848 66.3279 34.3188 66.815 33.8759C67.7984 32.9819 68.1314 31.8427 67.8139 30.4585" stroke="#908F90" stroke-width="2"/>
<path d="M67.8139 30.4586C67.7667 30.4164 67.7523 30.3584 67.7708 30.2844C67.7831 30.2351 67.779 30.1873 67.7584 30.141C67.5529 29.6724 67.2924 29.2233 66.9769 28.7938C66.7683 28.5091 66.7668 28.2373 66.9723 27.9784C67.1711 27.7302 67.6028 27.7672 67.8941 27.7179C69.5203 27.4435 70.3018 25.4612 70.0614 24.0122C69.8009 22.4445 68.6509 21.8156 67.202 21.6106C66.5916 21.5243 66.2648 20.8661 66.832 20.4576C67.6151 19.8934 68.1479 19.3796 68.4305 18.9162C69.0841 17.8464 68.97 16.8352 68.0883 15.8826" stroke="#005ABC" stroke-width="2"/>
<path d="M68.0884 15.8825C67.1682 14.8498 65.656 14.358 64.3735 14.9607C64.0313 15.1211 63.646 15.0363 63.4779 14.6833C63.3824 14.4798 63.3932 14.1546 63.5566 13.985C64.8406 12.6516 65.1396 11.158 63.8294 9.69359C63.1912 8.97938 62.3969 8.50975 61.4463 8.2847C60.6119 8.0874 60.0097 8.24719 59.6397 8.76409C59.2081 9.36834 58.3542 8.92286 58.5114 8.20146C58.8752 6.53875 58.4559 5.32973 57.2536 4.57442C55.5179 3.48461 52.1791 3.76362 51.2681 5.79834C51.0184 6.35634 50.2338 6.2099 50.0657 5.65344C49.3212 3.18865 47.6056 1.49614 44.8001 2.43026C44.0649 2.67535 42.1812 3.64492 42.192 4.56517C42.1997 5.12472 41.5415 5.44072 41.1284 5.07848C40.8109 4.80101 40.9157 4.35862 40.8494 3.98096C40.6367 2.76116 39.9949 1.94264 38.9241 1.52542C36.837 0.709994 33.5182 1.88767 33.3733 4.40178C33.3564 4.6962 33.2207 4.94745 32.9032 5.00911C32.1448 5.15555 32.0816 4.40178 31.9074 3.90389C31.7111 3.34383 31.427 2.83926 31.055 2.39018" stroke="#908F90" stroke-width="2"/>
<path d="M68.0883 15.8825L31.1427 15.8856C31.0821 15.8856 31.0518 15.8547 31.0518 15.7931L31.0548 2.39014" stroke="#80A5CB" stroke-width="2"/>
<path d="M67.8139 30.4585L31.1118 30.4677C31.0605 30.4677 31.0348 30.4934 31.0348 30.5448L31.0255 44.2761" stroke="#80A5CB" stroke-width="2"/>
<path d="M16.4485 39.9368L16.4408 30.5432C16.4408 30.4908 16.4146 30.4646 16.3622 30.4646L11.1706 30.4553" stroke="#80A5CB" stroke-width="2"/>
<path d="M2.80634 15.8825L16.3264 15.8763C16.3778 15.8763 16.4035 15.8501 16.4035 15.7977L16.4081 4.33081" stroke="#80A5CB" stroke-width="2"/>
<path d="M9.1862 18.9717C9.1862 18.762 9.1449 18.5543 9.06464 18.3606C8.98439 18.1668 8.86676 17.9908 8.71847 17.8425C8.57018 17.6942 8.39413 17.5766 8.20038 17.4963C8.00663 17.4161 7.79897 17.3748 7.58926 17.3748C7.16572 17.3748 6.75953 17.543 6.46005 17.8425C6.16056 18.142 5.99231 18.5482 5.99231 18.9717C5.99231 19.3952 6.16056 19.8014 6.46005 20.1009C6.75953 20.4004 7.16572 20.5686 7.58926 20.5686C7.79897 20.5686 8.00663 20.5273 8.20038 20.4471C8.39413 20.3668 8.57018 20.2492 8.71847 20.1009C8.86676 19.9526 8.98439 19.7766 9.06464 19.5828C9.1449 19.3891 9.1862 19.1814 9.1862 18.9717Z" stroke="#005ABC" stroke-width="2"/>
<path d="M19.044 41.8915C18.7218 41.9007 18.3981 41.9115 18.0713 41.8745C14.6262 41.483 12.9815 38.0116 13.783 34.8147C13.8015 34.7407 13.7738 34.696 13.6998 34.6805C10.5321 34.0501 9.20797 31.1984 9.98178 28.2095C9.98431 28.1993 9.9838 28.1886 9.98032 28.1787C9.97684 28.1688 9.97054 28.1601 9.96219 28.1537C9.95383 28.1473 9.9438 28.1435 9.93332 28.1427C9.92283 28.142 9.91235 28.1443 9.90317 28.1494C8.42645 28.971 6.65686 29.5629 4.97359 29.4381C1.31418 29.1652 -0.039216 25.4611 0.000861815 22.3474C0.0640614 17.5427 2.13886 12.4343 6.27921 9.76139C6.34189 9.72132 6.37118 9.66428 6.36707 9.59029C6.21447 7.07464 7.37672 4.50966 9.96174 3.86225C11.6543 3.43886 13.1053 3.82114 14.3148 5.00909C14.3775 5.07075 14.4232 5.05944 14.452 4.97518C14.5106 4.80099 14.6061 4.61602 14.6986 4.45725C15.6451 2.83101 17.4424 1.81982 19.3153 1.81211C21.0099 1.80389 22.3915 2.53146 23.4603 3.99481C23.4663 4.00333 23.4745 4.01009 23.4839 4.0144C23.4934 4.0187 23.5039 4.02039 23.5143 4.01929C23.5247 4.01819 23.5346 4.01434 23.5429 4.00814C23.5513 4.00194 23.5579 3.99361 23.562 3.98402C24.0717 2.8454 24.8491 1.91231 25.8942 1.18474C28.1786 -0.402957 31.146 -0.238021 32.6134 2.3655C32.6179 2.37364 32.6245 2.38048 32.6324 2.38534C32.6404 2.3902 32.6495 2.39292 32.6588 2.39323C32.6681 2.39354 32.6773 2.39143 32.6856 2.38711C32.6938 2.38279 32.7008 2.37641 32.7059 2.36858C33.7973 0.70689 35.8905 -0.116247 37.8436 0.0132357C39.7478 0.139635 41.0662 1.01672 41.7989 2.6445C41.8226 2.69896 41.8565 2.70616 41.9007 2.66608C42.99 1.68058 44.2581 1.10047 45.705 0.925776C48.0449 0.640607 49.8561 1.96934 50.8257 4.05185C50.8302 4.06163 50.8369 4.07016 50.8455 4.07675C50.854 4.08334 50.864 4.0878 50.8747 4.08976C50.8854 4.09171 50.8964 4.09111 50.9069 4.08801C50.9174 4.0849 50.9271 4.07937 50.9351 4.07189C51.3195 3.70399 51.7531 3.41523 52.2361 3.20559C55.2713 1.8861 59.7415 2.9682 59.9126 6.92512C59.9157 6.995 59.9516 7.02377 60.0205 7.01144C61.453 6.75967 62.8367 7.17072 64.1716 8.2446C65.7239 9.49472 66.4545 11.4262 65.5898 13.3037C65.5558 13.3766 65.5795 13.4152 65.6607 13.4193C69.2954 13.5996 71.7386 17.6136 68.7821 20.4976C68.7676 20.5118 68.7568 20.5294 68.7508 20.5488C68.7448 20.5682 68.7437 20.5888 68.7477 20.6087C68.7517 20.6286 68.7606 20.6472 68.7736 20.6628C68.7866 20.6784 68.8033 20.6905 68.8222 20.698C70.1961 21.2396 71.0275 22.2415 71.3163 23.7038C71.7155 25.7185 70.6534 28.1247 68.6711 28.8554C68.6208 28.8739 68.6074 28.9068 68.631 28.954C69.2271 30.1379 69.3571 31.3597 69.021 32.6196C68.5509 34.383 67.1312 35.7164 65.2506 35.6933C65.19 35.6923 65.1684 35.7205 65.1859 35.7781C65.6165 37.2239 65.5656 38.527 65.0333 39.6872C64.0971 41.7271 62.4647 42.7691 60.1361 42.8133C60.0703 42.8143 60.0487 42.8456 60.0713 42.9073C60.6581 44.5484 60.6042 46.2481 59.9095 48.0064C59.0864 50.0889 57.2012 52.2192 54.9845 52.8404C52.3086 53.588 50.9012 51.5949 50.6947 49.2365C50.5929 48.0701 50.6592 46.8452 50.8935 45.5617C50.9069 45.4908 50.8807 45.4697 50.8149 45.4985C47.9139 46.7609 45.036 45.594 43.2186 43.1632C43.1744 43.1046 43.1374 43.1087 43.1076 43.1755C42.6652 44.142 41.893 45.1378 40.9496 45.6727C38.7207 46.9367 36.7121 45.5709 35.405 43.6904C35.3993 43.6821 35.3915 43.6756 35.3824 43.6714C35.3732 43.6673 35.3632 43.6656 35.3532 43.6668C35.3433 43.6679 35.3338 43.6716 35.3258 43.6777C35.3178 43.6837 35.3116 43.6919 35.3079 43.7011C34.7545 45.0576 33.2562 45.6418 31.8319 45.6295C30.6573 45.6182 29.4873 45.3279 28.322 44.7586C28.2429 44.7206 28.2069 44.7452 28.2141 44.8326C28.3631 46.745 27.8925 48.4663 26.8021 49.9964C25.6445 51.6211 23.7701 53.0054 21.7307 52.7726C19.1997 52.4843 18.486 49.5648 18.4582 47.4808C18.4356 45.7842 18.6571 43.9534 19.1226 41.9886C19.138 41.9218 19.1118 41.8894 19.044 41.8915ZM31.055 2.39016C30.5258 1.7818 29.883 1.46529 29.1266 1.44062C27.132 1.3728 25.3547 2.94816 24.621 4.79174C24.4406 5.24647 24.4345 5.73974 24.3173 6.21451C24.2187 6.61837 23.7454 6.6939 23.431 6.53205C23.282 6.45498 23.173 6.3183 23.1042 6.12202C22.2795 3.77901 20.2402 2.4364 17.8524 3.3844C17.2996 3.60328 16.8181 3.91877 16.4081 4.33085C15.6605 5.09387 15.3106 5.99254 15.3815 7.04843C15.4385 7.90702 14.3256 8.09662 14.116 7.30894C13.652 5.55785 12.0211 4.57286 10.2639 5.10928C8.15978 5.75361 7.38443 7.87003 7.6881 9.92633C7.72509 10.1838 7.63106 10.4566 7.39522 10.5907C5.31426 11.7714 3.79438 13.6644 2.78011 15.8147C2.7503 15.8763 2.75904 15.899 2.80631 15.8825C2.7652 15.9329 2.73643 15.9755 2.71999 16.0105C1.83622 17.9023 1.36454 19.8831 1.30493 21.9528C1.26588 23.3205 1.44212 24.5162 1.83365 25.5397C3.45835 29.7849 7.98251 28.0215 10.6908 26.1948C11.1517 25.885 11.8069 25.6553 11.9733 26.46C12.0073 26.6254 11.978 26.7842 11.8855 26.9363C11.2833 27.929 11.011 29.0101 11.0685 30.1795C11.0695 30.205 11.0753 30.2306 11.0855 30.255L11.1702 30.4554C11.1487 30.4431 11.1302 30.4431 11.1147 30.4554C11.0932 30.4719 11.0849 30.4929 11.0901 30.5186C11.3932 32.1022 12.3135 33.0641 13.8508 33.4042C14.0995 33.4597 14.3426 33.4859 14.5799 33.4828C15.1996 33.4751 15.494 33.9144 15.2551 34.4848C14.5198 36.2513 14.8235 38.6822 16.4482 39.9369C17.0206 40.3552 17.6654 40.5807 18.3827 40.6136C18.9037 40.6372 19.4463 40.6151 20.0105 40.5473C20.6332 40.4718 20.6456 41.1454 20.5469 41.5385C20.1061 43.267 19.8389 44.9256 19.7454 46.5143C19.6482 48.1513 19.8949 51.8786 22.5123 51.4963C23.989 51.2805 25.2977 50.0658 26.0252 48.8373C27.0621 47.0903 27.2378 45.2703 26.5524 43.3774C26.3751 42.8857 26.4661 42.3878 27.1058 42.3693C27.2435 42.3652 27.3519 42.4038 27.431 42.4849C28.4114 43.4859 29.6096 44.0829 31.0257 44.2761C31.9259 44.4703 32.7049 44.382 33.3626 44.011C34.1456 43.5686 34.4169 42.7609 34.4108 41.9069C34.4077 41.2086 35.311 41.0036 35.6285 41.6032C36.3823 43.0306 38.2089 45.7883 40.1989 44.6229C41.1474 44.067 41.8025 43.193 42.1643 42.0009C42.2999 41.5539 41.9793 40.9697 42.5943 40.7585C42.9782 40.6259 43.2787 40.8279 43.4498 41.1547C44.2175 42.6221 45.4306 43.9339 46.9197 44.4642C48.272 44.9461 49.499 44.8279 50.6006 44.1096C51.0662 43.8075 51.3518 43.4083 51.4577 42.9119C51.6565 41.9917 52.9529 42.3061 52.6862 43.2803C52.2217 44.9718 51.9674 46.576 51.9232 48.0927C51.8944 49.0392 52.0306 49.8706 52.3317 50.5868C52.936 52.0235 54.4034 51.9094 55.5194 51.2419C58.4944 49.4646 60.301 45.6403 58.4097 42.3847C58.0628 41.7867 58.5546 41.2256 59.1866 41.3967C60.2702 41.688 61.5203 41.4922 62.3989 40.9111C64.0637 39.8105 64.6371 37.6941 63.8309 35.8829C63.6306 35.4282 62.9939 34.8054 63.4795 34.3229C63.8664 33.9391 64.426 34.3137 64.8606 34.3738C65.6766 34.4848 66.3281 34.3188 66.8152 33.8759C67.7987 32.9819 68.1316 31.8427 67.8141 30.4585C67.7668 30.4164 67.7524 30.3583 67.7709 30.2843C67.7832 30.235 67.7791 30.1872 67.7586 30.141C67.5531 29.6724 67.2925 29.2233 66.9771 28.7937C66.7685 28.5091 66.7669 28.2373 66.9724 27.9783C67.1713 27.7301 67.6029 27.7671 67.8942 27.7178C69.5205 27.4434 70.302 25.4611 70.0615 24.0121C69.801 22.4445 68.6511 21.8156 67.2021 21.6106C66.5917 21.5242 66.2649 20.866 66.8322 20.4575C67.6152 19.8934 68.1481 19.3796 68.4307 18.9161C69.0842 17.8463 68.9702 16.8351 68.0884 15.8825C67.1682 14.8497 65.656 14.358 64.3735 14.9607C64.0313 15.121 63.646 15.0363 63.478 14.6833C63.3824 14.4798 63.3932 14.1545 63.5566 13.985C64.8406 12.6516 65.1396 11.158 63.8294 9.69357C63.1912 8.97936 62.3969 8.50973 61.4463 8.28468C60.6119 8.08737 60.0097 8.24717 59.6397 8.76407C59.2081 9.36832 58.3542 8.92284 58.5114 8.20144C58.8752 6.53873 58.4559 5.32971 57.2536 4.5744C55.5179 3.48459 52.1791 3.76359 51.2681 5.79831C51.0184 6.35632 50.2338 6.20988 50.0658 5.65342C49.3212 3.18863 47.6056 1.49611 44.8002 2.43024C44.0649 2.67533 42.1812 3.6449 42.192 4.56515C42.1997 5.1247 41.5415 5.4407 41.1284 5.07846C40.8109 4.80099 40.9157 4.3586 40.8494 3.98094C40.6367 2.76113 39.9949 1.94262 38.9241 1.5254C36.837 0.709973 33.5182 1.88764 33.3734 4.40176C33.3564 4.69617 33.2207 4.94743 32.9032 5.00909C32.1448 5.15553 32.0816 4.40176 31.9074 3.90387C31.7112 3.3438 31.427 2.83924 31.055 2.39016Z" fill="#211F20"/>
<path d="M68.0883 15.8825L31.1427 15.8856C31.0821 15.8856 31.0518 15.8548 31.0518 15.7931L31.0548 2.39018C31.4268 2.83926 31.711 3.34383 31.9073 3.90389C32.0815 4.40178 32.1447 5.15555 32.903 5.00911C33.2206 4.94745 33.3562 4.6962 33.3732 4.40178C33.5181 1.88767 36.8368 0.709994 38.924 1.52542C39.9948 1.94264 40.6365 2.76116 40.8492 3.98096C40.9155 4.35862 40.8107 4.80101 41.1282 5.07848C41.5414 5.44072 42.1996 5.12472 42.1919 4.56517C42.1811 3.64492 44.0647 2.67535 44.8 2.43026C47.6054 1.49614 49.3211 3.18865 50.0656 5.65344C50.2336 6.2099 51.0182 6.35634 51.2679 5.79834C52.1789 3.76362 55.5177 3.48461 57.2534 4.57442C58.4557 5.32973 58.875 6.53875 58.5112 8.20146C58.354 8.92286 59.208 9.36834 59.6396 8.76409C60.0095 8.24719 60.6117 8.0874 61.4462 8.2847C62.3967 8.50975 63.1911 8.97938 63.8293 9.69359C65.1395 11.158 64.8404 12.6516 63.5564 13.985C63.393 14.1546 63.3822 14.4798 63.4778 14.6833C63.6458 15.0363 64.0312 15.1211 64.3734 14.9607C65.6559 14.358 67.168 14.8498 68.0883 15.8825Z" fill="white"/>
<path d="M31.0553 2.39012L31.0522 15.7931C31.0522 15.8547 31.0825 15.8856 31.1431 15.8856L68.0887 15.8825C68.9704 16.8351 69.0845 17.8463 68.4309 18.9161C68.1483 19.3795 67.6155 19.8933 66.8324 20.4575C66.2652 20.866 66.5919 21.5242 67.2024 21.6105C68.6513 21.8155 69.8013 22.4444 70.0618 24.0121C70.3022 25.4611 69.5207 27.4434 67.8945 27.7178C67.6031 27.7671 67.1715 27.7301 66.9727 27.9783C66.7672 28.2372 66.7687 28.509 66.9773 28.7937C67.2928 29.2232 67.5533 29.6723 67.7588 30.1409C67.7794 30.1872 67.7835 30.235 67.7712 30.2843C67.7527 30.3583 67.767 30.4163 67.8143 30.4585L31.1123 30.4677C31.0609 30.4677 31.0352 30.4934 31.0352 30.5448L31.026 44.2761C29.6099 44.0829 28.4117 43.4858 27.4313 42.4849C27.3522 42.4037 27.2437 42.3652 27.106 42.3693C26.4663 42.3878 26.3754 42.8857 26.5527 43.3774C27.2381 45.2703 27.0624 47.0902 26.0255 48.8372C25.2979 50.0658 23.9892 51.2804 22.5125 51.4962C19.8951 51.8785 19.6485 48.1513 19.7456 46.5143C19.8391 44.9255 20.1063 43.2669 20.5472 41.5384C20.6458 41.1454 20.6335 40.4718 20.0107 40.5473C19.4466 40.6151 18.904 40.6372 18.383 40.6136C17.6657 40.5807 17.0208 40.3551 16.4484 39.9369L16.4407 30.5432C16.4407 30.4908 16.4145 30.4646 16.3621 30.4646L11.1705 30.4554L11.0857 30.255C11.0755 30.2305 11.0698 30.2049 11.0688 30.1795C11.0112 29.01 11.2835 27.9289 11.8857 26.9362C11.9782 26.7842 12.0075 26.6254 11.9736 26.4599C11.8071 25.6553 11.152 25.885 10.6911 26.1948C7.98276 28.0214 3.45859 29.7849 1.8339 25.5397C1.44237 24.5162 1.26613 23.3205 1.30518 21.9527C1.36478 19.8831 1.83647 17.9023 2.72023 16.0104C2.73668 15.9755 2.76545 15.9328 2.80655 15.8825L16.3267 15.8763C16.378 15.8763 16.4037 15.8501 16.4037 15.7977L16.4083 4.33082C16.8184 3.91873 17.2998 3.60325 17.8527 3.38436C20.2404 2.43637 22.2797 3.77898 23.1044 6.12199C23.1733 6.31826 23.2822 6.45494 23.4312 6.53201C23.7457 6.69387 24.2189 6.61833 24.3176 6.21447C24.4347 5.7397 24.4409 5.24644 24.6212 4.79171C25.355 2.94813 27.1322 1.37276 29.1269 1.44059C29.8832 1.46525 30.526 1.78176 31.0553 2.39012ZM9.18663 18.9715C9.18663 18.7618 9.14533 18.5542 9.06507 18.3604C8.98482 18.1667 8.86719 17.9906 8.7189 17.8423C8.57061 17.694 8.39456 17.5764 8.20081 17.4962C8.00706 17.4159 7.7994 17.3746 7.58969 17.3746C7.16615 17.3746 6.75996 17.5429 6.46048 17.8423C6.16099 18.1418 5.99274 18.548 5.99274 18.9715C5.99274 19.3951 6.16099 19.8013 6.46048 20.1008C6.75996 20.4002 7.16615 20.5685 7.58969 20.5685C7.7994 20.5685 8.00706 20.5272 8.20081 20.4469C8.39456 20.3667 8.57061 20.2491 8.7189 20.1008C8.86719 19.9525 8.98482 19.7764 9.06507 19.5827C9.14533 19.3889 9.18663 19.1813 9.18663 18.9715Z" fill="#014A97"/>
<path d="M16.4081 4.33081L16.4035 15.7977C16.4035 15.8501 16.3778 15.8763 16.3264 15.8763L2.80631 15.8825C2.75904 15.8989 2.7503 15.8763 2.7801 15.8146C3.79438 13.6643 5.31425 11.7714 7.39522 10.5907C7.63106 10.4565 7.72509 10.1837 7.68809 9.92629C7.38443 7.86999 8.15978 5.75357 10.2639 5.10924C12.0211 4.57282 13.652 5.55781 14.116 7.3089C14.3256 8.09658 15.4385 7.90698 15.3815 7.04839C15.3106 5.9925 15.6605 5.09383 16.4081 4.33081Z" fill="white"/>
<path d="M7.58926 20.5686C8.47123 20.5686 9.1862 19.8537 9.1862 18.9717C9.1862 18.0897 8.47123 17.3748 7.58926 17.3748C6.70729 17.3748 5.99231 18.0897 5.99231 18.9717C5.99231 19.8537 6.70729 20.5686 7.58926 20.5686Z" fill="#211F20"/>
<path d="M11.17 30.4555L16.3616 30.4648C16.414 30.4648 16.4402 30.491 16.4402 30.5434L16.448 39.937C14.8233 38.6823 14.5196 36.2514 15.2549 34.4849C15.4938 33.9146 15.1994 33.4752 14.5797 33.483C14.3423 33.486 14.0993 33.4598 13.8506 33.4043C12.3133 33.0642 11.393 32.1023 11.0899 30.5187C11.0847 30.493 11.0929 30.472 11.1145 30.4555C11.1299 30.4432 11.1484 30.4432 11.17 30.4555Z" fill="white"/>
<path d="M67.8139 30.4585C68.1314 31.8427 67.7984 32.9819 66.815 33.8759C66.3279 34.3188 65.6764 34.4848 64.8604 34.3738C64.4257 34.3137 63.8662 33.9391 63.4793 34.3229C62.9937 34.8054 63.6304 35.4281 63.8307 35.8829C64.6369 37.6941 64.0635 39.8105 62.3987 40.9111C61.5201 41.4922 60.27 41.688 59.1863 41.3967C58.5543 41.2256 58.0626 41.7866 58.4094 42.3847C60.3008 45.6403 58.4942 49.4646 55.5192 51.2419C54.4032 51.9094 52.9357 52.0234 52.3315 50.5868C52.0304 49.8705 51.8942 49.0392 51.923 48.0927C51.9672 46.5759 52.2215 44.9718 52.686 43.2803C52.9527 42.3061 51.6563 41.9917 51.4575 42.9119C51.3516 43.4083 51.066 43.8075 50.6004 44.1096C49.4988 44.8279 48.2718 44.9461 46.9194 44.4641C45.4304 43.9339 44.2173 42.6221 43.4496 41.1546C43.2785 40.8279 42.9779 40.6259 42.5941 40.7585C41.9791 40.9697 42.2997 41.5539 42.1641 42.0009C41.8023 43.193 41.1472 44.067 40.1987 44.6229C38.2087 45.7883 36.3821 43.0306 35.6283 41.6032C35.3108 41.0036 34.4075 41.2086 34.4105 41.9069C34.4167 42.7608 34.1454 43.5686 33.3624 44.011C32.7047 44.3819 31.9257 44.4703 31.0255 44.2761L31.0348 30.5448C31.0348 30.4934 31.0605 30.4677 31.1118 30.4677L67.8139 30.4585Z" fill="white"/>
</svg>
