<svg width="1772" height="1066" viewBox="0 0 1772 1066" fill="none" xmlns="http://www.w3.org/2000/svg">
<rect width="1772" height="1066" fill="#E2E8F0"/>
<path d="M717 507L806.423 417.577C810.044 413.956 814.344 411.083 819.075 409.123C823.807 407.163 828.878 406.154 834 406.154C839.122 406.154 844.193 407.163 848.925 409.123C853.656 411.083 857.956 413.956 861.577 417.577L951 507M925 481L949.423 456.577C953.044 452.956 957.344 450.083 962.075 448.123C966.807 446.163 971.878 445.154 977 445.154C982.122 445.154 987.193 446.163 991.925 448.123C996.657 450.083 1000.96 452.956 1004.58 456.577L1055 507M743 572H1029C1035.9 572 1042.51 569.261 1047.38 564.385C1052.26 559.509 1055 552.896 1055 546V338C1055 331.104 1052.26 324.491 1047.38 319.615C1042.51 314.739 1035.9 312 1029 312H743C736.104 312 729.491 314.739 724.615 319.615C719.739 324.491 717 331.104 717 338V546C717 552.896 719.739 559.509 724.615 564.385C729.491 569.261 736.104 572 743 572ZM925 377H925.139V377.139H925V377ZM931.5 377C931.5 378.724 930.815 380.377 929.596 381.596C928.377 382.815 926.724 383.5 925 383.5C923.276 383.5 921.623 382.815 920.404 381.596C919.185 380.377 918.5 378.724 918.5 377C918.5 375.276 919.185 373.623 920.404 372.404C921.623 371.185 923.276 370.5 925 370.5C926.724 370.5 928.377 371.185 929.596 372.404C930.815 373.623 931.5 375.276 931.5 377Z" stroke="#4B5569" stroke-width="16.5" stroke-linecap="round" stroke-linejoin="round"/>
<path d="M671.686 673.364V733H663.416L633.103 689.263H632.55V733H623.552V673.364H631.88L662.222 717.159H662.776V673.364H671.686ZM702.953 733.903C698.76 733.903 695.1 732.942 691.975 731.02C688.849 729.098 686.423 726.409 684.695 722.954C682.967 719.498 682.104 715.46 682.104 710.84C682.104 706.201 682.967 702.143 684.695 698.668C686.423 695.193 688.849 692.495 691.975 690.573C695.1 688.651 698.76 687.69 702.953 687.69C707.146 687.69 710.805 688.651 713.931 690.573C717.056 692.495 719.483 695.193 721.211 698.668C722.939 702.143 723.802 706.201 723.802 710.84C723.802 715.46 722.939 719.498 721.211 722.954C719.483 726.409 717.056 729.098 713.931 731.02C710.805 732.942 707.146 733.903 702.953 733.903ZM702.982 726.594C705.7 726.594 707.952 725.875 709.738 724.439C711.524 723.002 712.844 721.09 713.698 718.702C714.572 716.315 715.008 713.684 715.008 710.811C715.008 707.957 714.572 705.337 713.698 702.949C712.844 700.542 711.524 698.61 709.738 697.154C707.952 695.698 705.7 694.97 702.982 694.97C700.245 694.97 697.974 695.698 696.168 697.154C694.382 698.61 693.052 700.542 692.179 702.949C691.325 705.337 690.898 707.957 690.898 710.811C690.898 713.684 691.325 716.315 692.179 718.702C693.052 721.09 694.382 723.002 696.168 724.439C697.974 725.875 700.245 726.594 702.982 726.594ZM752.98 681.109V673.364H799.134V681.109H780.527V733H771.558V681.109H752.98ZM817.341 706.443V733H808.634V673.364H817.224V695.553H817.778C818.826 693.145 820.428 691.233 822.582 689.816C824.737 688.399 827.552 687.69 831.027 687.69C834.094 687.69 836.773 688.321 839.064 689.583C841.374 690.845 843.16 692.728 844.422 695.232C845.703 697.717 846.344 700.823 846.344 704.55V733H837.637V705.599C837.637 702.318 836.793 699.775 835.104 697.969C833.415 696.145 831.066 695.232 828.057 695.232C825.999 695.232 824.155 695.669 822.524 696.543C820.913 697.416 819.641 698.697 818.71 700.386C817.797 702.056 817.341 704.075 817.341 706.443ZM886.295 714.451V688.273H895.031V733H886.47V725.254H886.004C884.975 727.642 883.325 729.632 881.054 731.224C878.802 732.796 875.997 733.582 872.638 733.582C869.765 733.582 867.222 732.951 865.009 731.69C862.816 730.408 861.088 728.516 859.826 726.011C858.584 723.507 857.962 720.411 857.962 716.722V688.273H866.669V715.674C866.669 718.722 867.513 721.148 869.202 722.954C870.891 724.759 873.085 725.662 875.783 725.662C877.414 725.662 879.035 725.254 880.646 724.439C882.277 723.624 883.626 722.391 884.694 720.741C885.781 719.091 886.315 716.994 886.295 714.451ZM906.73 733V688.273H915.087V695.553H915.64C916.572 693.087 918.096 691.165 920.212 689.787C922.328 688.389 924.862 687.69 927.812 687.69C930.802 687.69 933.306 688.389 935.325 689.787C937.363 691.185 938.868 693.107 939.839 695.553H940.305C941.372 693.165 943.071 691.262 945.4 689.845C947.73 688.409 950.506 687.69 953.729 687.69C957.786 687.69 961.096 688.962 963.658 691.505C966.24 694.048 967.531 697.882 967.531 703.007V733H958.824V703.822C958.824 700.794 957.999 698.6 956.349 697.241C954.699 695.883 952.729 695.203 950.438 695.203C947.604 695.203 945.4 696.077 943.828 697.824C942.256 699.552 941.469 701.774 941.469 704.492V733H932.792V703.269C932.792 700.843 932.035 698.892 930.52 697.416C929.006 695.941 927.036 695.203 924.609 695.203C922.959 695.203 921.435 695.64 920.037 696.513C918.659 697.368 917.543 698.562 916.689 700.095C915.854 701.629 915.437 703.405 915.437 705.424V733H906.73ZM979.9 733V673.364H988.606V695.523H989.13C989.635 694.592 990.363 693.514 991.314 692.291C992.266 691.068 993.586 690 995.275 689.088C996.963 688.156 999.196 687.69 1001.97 687.69C1005.58 687.69 1008.81 688.603 1011.64 690.428C1014.47 692.252 1016.7 694.883 1018.31 698.319C1019.94 701.755 1020.75 705.89 1020.75 710.724C1020.75 715.558 1019.95 719.702 1018.34 723.158C1016.73 726.594 1014.51 729.244 1011.7 731.107C1008.88 732.951 1005.67 733.874 1002.06 733.874C999.342 733.874 997.119 733.417 995.391 732.505C993.683 731.593 992.343 730.525 991.373 729.302C990.402 728.079 989.654 726.992 989.13 726.04H988.402V733H979.9ZM988.431 710.636C988.431 713.781 988.888 716.538 989.8 718.906C990.712 721.275 992.033 723.129 993.76 724.468C995.488 725.788 997.604 726.448 1000.11 726.448C1002.71 726.448 1004.88 725.759 1006.63 724.381C1008.38 722.983 1009.7 721.09 1010.59 718.702C1011.5 716.315 1011.96 713.626 1011.96 710.636C1011.96 707.686 1011.51 705.036 1010.62 702.687C1009.75 700.338 1008.43 698.484 1006.66 697.125C1004.91 695.766 1002.73 695.087 1000.11 695.087C997.585 695.087 995.449 695.737 993.702 697.038C991.974 698.338 990.664 700.153 989.771 702.483C988.878 704.812 988.431 707.53 988.431 710.636ZM1039.24 706.443V733H1030.53V688.273H1038.89V695.553H1039.44C1040.47 693.184 1042.08 691.282 1044.28 689.845C1046.49 688.409 1049.27 687.69 1052.63 687.69C1055.68 687.69 1058.35 688.331 1060.64 689.612C1062.93 690.874 1064.71 692.757 1065.97 695.261C1067.23 697.766 1067.86 700.862 1067.86 704.55V733H1059.16V705.599C1059.16 702.357 1058.31 699.823 1056.62 697.999C1054.93 696.154 1052.61 695.232 1049.66 695.232C1047.64 695.232 1045.85 695.669 1044.28 696.543C1042.72 697.416 1041.49 698.697 1040.58 700.386C1039.68 702.056 1039.24 704.075 1039.24 706.443ZM1092.55 733.99C1089.72 733.99 1087.16 733.466 1084.87 732.418C1082.58 731.35 1080.76 729.807 1079.42 727.788C1078.1 725.769 1077.44 723.294 1077.44 720.362C1077.44 717.839 1077.93 715.761 1078.9 714.131C1079.87 712.5 1081.18 711.209 1082.83 710.258C1084.48 709.307 1086.32 708.588 1088.36 708.103C1090.4 707.618 1092.48 707.249 1094.59 706.996C1097.27 706.686 1099.45 706.433 1101.12 706.239C1102.79 706.026 1104 705.686 1104.76 705.22C1105.51 704.754 1105.89 703.997 1105.89 702.949V702.745C1105.89 700.202 1105.17 698.232 1103.74 696.834C1102.32 695.436 1100.2 694.737 1097.39 694.737C1094.46 694.737 1092.15 695.388 1090.46 696.688C1088.79 697.969 1087.63 699.396 1086.99 700.969L1078.81 699.105C1079.78 696.387 1081.2 694.194 1083.06 692.524C1084.95 690.835 1087.11 689.612 1089.56 688.855C1092 688.079 1094.57 687.69 1097.27 687.69C1099.06 687.69 1100.95 687.904 1102.95 688.331C1104.97 688.739 1106.85 689.496 1108.6 690.602C1110.37 691.709 1111.81 693.291 1112.94 695.349C1114.06 697.387 1114.63 700.037 1114.63 703.298V733H1106.12V726.885H1105.78C1105.21 728.011 1104.37 729.117 1103.24 730.205C1102.12 731.292 1100.67 732.194 1098.9 732.913C1097.14 733.631 1095.02 733.99 1092.55 733.99ZM1094.45 727.001C1096.85 727.001 1098.91 726.526 1100.62 725.575C1102.35 724.623 1103.66 723.381 1104.55 721.847C1105.46 720.294 1105.92 718.634 1105.92 716.868V711.102C1105.61 711.413 1105.01 711.704 1104.12 711.976C1103.24 712.228 1102.24 712.451 1101.12 712.646C1099.99 712.82 1098.89 712.985 1097.83 713.141C1096.76 713.277 1095.86 713.393 1095.15 713.49C1093.46 713.704 1091.91 714.063 1090.52 714.567C1089.14 715.072 1088.03 715.8 1087.2 716.751C1086.38 717.683 1085.97 718.926 1085.97 720.479C1085.97 722.634 1086.77 724.264 1088.36 725.371C1089.95 726.458 1091.98 727.001 1094.45 727.001ZM1126.22 733V688.273H1134.93V733H1126.22ZM1130.62 681.371C1129.11 681.371 1127.81 680.867 1126.72 679.857C1125.65 678.828 1125.12 677.605 1125.12 676.188C1125.12 674.752 1125.65 673.529 1126.72 672.519C1127.81 671.49 1129.11 670.976 1130.62 670.976C1132.14 670.976 1133.43 671.49 1134.49 672.519C1135.58 673.529 1136.12 674.752 1136.12 676.188C1136.12 677.605 1135.58 678.828 1134.49 679.857C1133.43 680.867 1132.14 681.371 1130.62 681.371ZM1155.35 673.364V733H1146.64V673.364H1155.35Z" fill="#475569" fill-opacity="0.85098"/>
</svg>
