<svg width="264" height="65" viewBox="0 0 264 65" fill="none" xmlns="http://www.w3.org/2000/svg">
<path d="M0.98584 34.2038H12.7447L6.86529 24.0328L0.98584 34.2038Z" fill="#432F91"/>
<path d="M6.8653 24.0543H18.6027L12.7448 13.8618L6.8653 24.0543Z" fill="#4F64AD"/>
<path d="M12.7448 13.8403H24.4822L18.6027 24.0113L12.7448 13.8403Z" fill="#5A8FCA"/>
<path d="M6.8653 24.0328H18.6027L12.7448 34.2253L6.8653 24.0328Z" fill="#484DA0"/>
<path d="M18.6457 64.7383H30.3831L24.5037 54.5673L18.6457 64.7383Z" fill="#EF4E66"/>
<path d="M24.5036 54.5673H36.2625L30.3831 44.3963L24.5036 54.5673Z" fill="#F58D4E"/>
<path d="M30.3831 44.3963H42.142L36.2626 34.2253L30.3831 44.3963Z" fill="#FEC90F"/>
<path d="M30.3831 44.3534H42.142L36.2626 54.5459L30.3831 44.3534Z" fill="#FBAF3F"/>
<path d="M18.6242 34.1394H30.3831L24.5037 23.947L18.6242 34.1394Z" fill="#82C672"/>
<path d="M18.6242 34.0965H30.3831L24.5037 44.2676L18.6242 34.0965Z" fill="#489E99"/>
<path d="M36.2411 34.1609H48L42.1206 44.3319L36.2411 34.1609Z" fill="#C1C72F"/>
<path d="M24.5036 54.5673H36.2625L30.3831 64.7383L24.5036 54.5673Z" fill="#F2726D"/>
<path d="M18.6242 64.7383L24.5037 54.5673H12.7448L18.6242 64.7383Z" fill="#EC2285"/>
<path d="M12.7662 54.5673L18.6457 44.3963H6.88675L12.7662 54.5673Z" fill="#6C3B97"/>
<path d="M6.88674 44.3963L12.7662 34.2253H1.00729L6.88674 44.3963Z" fill="#4C3493"/>
<path d="M6.8653 44.3748L12.7448 34.2038L18.6027 44.3748H6.8653Z" fill="#573795"/>
<path d="M12.7448 54.5673L18.6242 44.3963L24.5037 54.5673H12.7448Z" fill="#AC2D91"/>
<path d="M18.6457 10.171H30.3831L24.5037 0L18.6457 10.171Z" fill="#46C8EF"/>
<path fill-rule="evenodd" clip-rule="evenodd" d="M75.7 40C76.8333 40 78.0333 39.9 79.3 39.7C80.5667 39.5 81.8334 39.2 83.1 38.8V43.2C82.3 43.5333 81.1334 43.8333 79.6 44.1C78 44.3667 76.3334 44.5 74.6 44.5C72.9334 44.5 71.3 44.3 69.7 43.9C68.1667 43.5 66.8333 42.8333 65.7 41.9C64.5667 40.9667 63.6667 39.7667 63 38.3C62.3333 36.8333 62 35.0667 62 33C62 30.9333 62.3 29.1333 62.9 27.6C63.5667 26 64.4333 24.7 65.5 23.7C66.5667 22.7 67.7667 21.9333 69.1 21.4C70.5 20.9333 71.9334 20.7 73.4 20.7C74.9334 20.7 76.3334 20.9 77.6 21.3C78.9334 21.7667 80.0667 22.4667 81 23.4C81.9333 24.3333 82.6667 25.5333 83.2 27C83.7333 28.4667 84 30.2 84 32.2C83.9333 33 83.9 33.6666 83.9 34.2H68C68.0667 35.2666 68.3333 36.1667 68.8 36.9C69.2 37.6333 69.7334 38.2333 70.4 38.7C71.0667 39.1666 71.8667 39.5 72.8 39.7C73.6667 39.9 74.6333 40 75.7 40ZM73.3 25C72.5667 25 71.9 25.1333 71.3 25.4C70.7 25.6667 70.2 26 69.8 26.4C69.4 26.8667 69.0667 27.4 68.8 28C68.5333 28.6 68.3667 29.2333 68.3 29.9H77.8C77.8 29.2333 77.7 28.6 77.5 28C77.3 27.4 77.0333 26.8667 76.7 26.4C76.3 26 75.8333 25.6667 75.3 25.4C74.7 25.1333 74.0333 25 73.3 25Z" fill="white"/>
<path fill-rule="evenodd" clip-rule="evenodd" d="M88.2 33C88.2 31.0667 88.5 29.3 89.1 27.7C89.7 26.1666 90.5 24.8667 91.5 23.8C92.5 22.7333 93.6334 21.9333 94.9 21.4C96.2334 20.9333 97.6 20.7 99 20.7C99.6667 20.7 100.267 20.7333 100.8 20.8C101.4 20.9333 101.967 21.1 102.5 21.3C103.033 21.5 103.5 21.7 103.9 21.9C104.367 22.1667 104.8 22.4 105.2 22.6C105.2 22.3333 105.2 21.9 105.2 21.3C105.2 20.7 105.2 20.0667 105.2 19.4V10H111.1V37.2C111.1 38.6666 111.133 39.9667 111.2 41.1C111.2 42.1667 111.233 43.1 111.3 43.9H105.9L105.7 41.5H105.6C105.2 41.9 104.767 42.3 104.3 42.7C103.833 43.0333 103.3 43.3333 102.7 43.6C102.1 43.9333 101.433 44.1667 100.7 44.3C100.033 44.4333 99.2667 44.5 98.4 44.5C97.0667 44.5 95.8 44.3 94.6 43.9C93.4 43.4333 92.3334 42.7333 91.4 41.8C90.4 40.9333 89.6334 39.7333 89.1 38.2C88.5 36.7333 88.2 35 88.2 33ZM99.9 40.1C100.5 40.1 101.033 40.0333 101.5 39.9C102.033 39.7667 102.533 39.5667 103 39.3C103.467 39.1 103.9 38.8333 104.3 38.5C104.633 38.2333 104.933 37.9666 105.2 37.7V26.9C104.467 26.3667 103.667 25.9333 102.8 25.6C101.933 25.2667 101.033 25.1 100.1 25.1C99.5 25.1 98.8334 25.2 98.1 25.4C97.4334 25.6667 96.8333 26.0667 96.3 26.6C95.7667 27.2 95.3 28 94.9 29C94.5 30 94.3 31.2667 94.3 32.8C94.3 35.0667 94.7667 36.8333 95.7 38.1C96.7 39.4333 98.1 40.1 99.9 40.1Z" fill="white"/>
<path d="M128.7 44.5C126.233 44.5 124.2 44.1333 122.6 43.4C121 42.6 119.8 41.5333 119 40.2C118.6 39.5333 118.3 38.7667 118.1 37.9C117.9 37.0333 117.767 36.1 117.7 35.1V21.2H123.7V34.5C123.7 35.3 123.733 35.9667 123.8 36.5C123.933 37.0333 124.133 37.5 124.4 37.9C124.8 38.6333 125.367 39.1667 126.1 39.5C126.833 39.8333 127.7 40 128.7 40C129.767 40 130.667 39.8 131.4 39.4C132.2 39 132.767 38.4333 133.1 37.7C133.5 36.9666 133.7 35.9333 133.7 34.6V21.2H139.6V35.1C139.6 36.9667 139.267 38.5333 138.6 39.8C138.2 40.4667 137.7 41.1 137.1 41.7C136.5 42.3 135.8 42.8 135 43.2C134.133 43.6 133.2 43.9333 132.2 44.2C131.133 44.4 129.967 44.5 128.7 44.5Z" fill="white"/>
<path fill-rule="evenodd" clip-rule="evenodd" d="M158 44.5C156.733 44.5 155.567 44.3 154.5 43.9C153.433 43.4333 152.533 42.8666 151.8 42.2H151.7C151.767 42.5333 151.8 42.9667 151.8 43.5C151.8 44.1 151.8 44.7333 151.8 45.4V54.8H145.9V21.2H151.1L151.3 23.8H151.4C152.133 22.8667 153.1 22.1 154.3 21.5C155.433 20.9667 156.767 20.7 158.3 20.7C159.567 20.7 160.867 20.9333 162.2 21.4C163.467 21.8 164.567 22.5 165.5 23.5C166.5 24.4333 167.3 25.6333 167.9 27.1C168.5 28.5667 168.8 30.3 168.8 32.3C168.8 34.3667 168.467 36.1666 167.8 37.7C167.2 39.2333 166.367 40.5333 165.3 41.6C164.3 42.6 163.167 43.3333 161.9 43.8C160.633 44.2667 159.333 44.5 158 44.5ZM157.2 25.1C156.2 25.1 155.233 25.3333 154.3 25.8C153.367 26.2667 152.533 26.9 151.8 27.7V37.8C152.067 38.0667 152.367 38.3333 152.7 38.6C153.033 38.8667 153.433 39.1 153.9 39.3C154.3 39.5667 154.767 39.7667 155.3 39.9C155.833 40.0333 156.4 40.1 157 40.1C157.867 40.1 158.667 39.9 159.4 39.5C160.133 39.1667 160.733 38.6667 161.2 38C161.667 37.3333 162.033 36.5333 162.3 35.6C162.567 34.6667 162.7 33.6333 162.7 32.5C162.7 31.2333 162.567 30.1667 162.3 29.3C162.033 28.3667 161.667 27.6 161.2 27C160.733 26.4 160.167 25.9333 159.5 25.6C158.833 25.2667 158.067 25.1 157.2 25.1Z" fill="white"/>
<path d="M188.4 25.6H187.9C186.1 25.6 184.5 25.8667 183.1 26.4C181.767 26.9333 180.733 27.7 180 28.7V43.9H174V21.2H178.9L179.5 24.4H179.6C180.267 23.2667 181.233 22.3666 182.5 21.7C183.7 21.0333 185.167 20.7 186.9 20.7C187.5 20.7 188 20.7333 188.4 20.8V25.6Z" fill="white"/>
<path d="M192.1 21.2H198V43.9H192.1V21.2Z" fill="white"/>
<path d="M215.4 37.3C215.4 36.8333 215.233 36.4666 214.9 36.2C214.633 35.8666 214.267 35.6 213.8 35.4C213.333 35.2 212.767 35 212.1 34.8C211.5 34.6667 210.867 34.5 210.2 34.3C209.333 34.1 208.5 33.8667 207.7 33.6C206.9 33.3333 206.167 32.9333 205.5 32.4C204.9 31.9333 204.433 31.3666 204.1 30.7C203.767 29.9666 203.6 29.1 203.6 28.1C203.6 26.8333 203.833 25.7333 204.3 24.8C204.767 23.8667 205.4 23.1 206.2 22.5C207.067 21.9 208.033 21.4333 209.1 21.1C210.233 20.8333 211.4 20.7 212.6 20.7C214.067 20.7 215.467 20.8 216.8 21C218.067 21.2 219.233 21.5 220.3 21.9V26.4C219.7 26.2 219.1 26.0333 218.5 25.9C217.9 25.7667 217.3 25.6333 216.7 25.5C216.1 25.4333 215.467 25.3667 214.8 25.3C214.2 25.2333 213.633 25.2 213.1 25.2C212.367 25.2 211.767 25.2333 211.3 25.3C210.833 25.4333 210.433 25.6333 210.1 25.9C209.833 26.1 209.633 26.3333 209.5 26.6C209.367 26.8667 209.3 27.1333 209.3 27.4C209.3 27.9333 209.433 28.3666 209.7 28.7C210.033 29.0333 210.433 29.3 210.9 29.5C211.433 29.7 212 29.8667 212.6 30C213.133 30.1333 213.667 30.2667 214.2 30.4C215.067 30.6 215.9 30.8333 216.7 31.1C217.5 31.3667 218.233 31.7333 218.9 32.2C219.567 32.6666 220.133 33.2667 220.6 34C221 34.8 221.2 35.7667 221.2 36.9C221.2 38.1667 220.933 39.3 220.4 40.3C219.933 41.2333 219.233 42.0333 218.3 42.7C217.367 43.3 216.267 43.7667 215 44.1C213.667 44.3667 212.233 44.5 210.7 44.5C209.167 44.5 207.8 44.4 206.6 44.2C205.333 43.9333 204.3 43.6333 203.5 43.3V38.8C204.833 39.2667 206.033 39.6 207.1 39.8C208.233 39.9333 209.267 40 210.2 40C210.933 40 211.633 39.9667 212.3 39.9C212.9 39.7667 213.433 39.6 213.9 39.4C214.367 39.2 214.733 38.9333 215 38.6C215.267 38.2667 215.4 37.8333 215.4 37.3Z" fill="white"/>
<path d="M257.5 30.1C257.5 29.6333 257.5 29.1666 257.5 28.7C257.433 28.3 257.367 27.9333 257.3 27.6C257.1 26.9333 256.733 26.4 256.2 26C255.667 25.5333 254.933 25.3 254 25.3C253.467 25.3 252.933 25.3667 252.4 25.5C251.867 25.6333 251.333 25.8333 250.8 26.1C250.2 26.3667 249.667 26.7 249.2 27.1C248.733 27.4333 248.3 27.8333 247.9 28.3V43.9H241.9V30.1C241.9 29.6333 241.9 29.1666 241.9 28.7C241.833 28.3 241.767 27.9333 241.7 27.6C241.5 26.9333 241.167 26.4 240.7 26C240.167 25.5333 239.4 25.3 238.4 25.3C237.867 25.3 237.333 25.3667 236.8 25.5C236.267 25.6333 235.733 25.8333 235.2 26.1C234.6 26.3667 234.067 26.7 233.6 27.1C233.133 27.4333 232.7 27.8333 232.3 28.3V43.9H226.3V21.2H231.2L231.8 24.4H231.9C232.233 23.9333 232.667 23.4667 233.2 23C233.733 22.5333 234.333 22.1333 235 21.8C235.667 21.4667 236.433 21.2 237.3 21C238.1 20.8 238.933 20.7 239.8 20.7C241.4 20.7 242.833 21.0333 244.1 21.7C245.367 22.3666 246.333 23.4 247 24.8H247.1C247.567 24.1333 248.1 23.5667 248.7 23.1C249.3 22.5667 249.933 22.1333 250.6 21.8C251.333 21.4667 252.1 21.2 252.9 21C253.7 20.8 254.567 20.7 255.5 20.7C257.233 20.7 258.667 21.0333 259.8 21.7C261 22.3666 261.9 23.2667 262.5 24.4C262.7 24.7333 262.867 25.0667 263 25.4C263.067 25.7333 263.167 26.1333 263.3 26.6C263.367 27 263.4 27.4667 263.4 28C263.467 28.5333 263.5 29.1333 263.5 29.8V43.9H257.5V30.1Z" fill="white"/>
<path d="M194.9 10.5L199.2 17.9H190.6L194.9 10.5Z" fill="#489E99"/>
<path d="M194.9 10.5L199.2 18L203.5 10.5H194.9Z" fill="#82C672"/>
</svg>
