<svg width="154" height="211" viewBox="0 0 154 211" fill="none" xmlns="http://www.w3.org/2000/svg">
<path d="M0 111.321H38.271L19.1355 78.2181L0 111.321Z" fill="#432F91"/>
<path d="M19.1355 78.2879H57.3367L38.271 45.1151L19.1355 78.2879Z" fill="#4F64AD"/>
<path d="M38.271 45.0452H76.4722L57.3367 78.1483L38.271 45.0452Z" fill="#5A8FCA"/>
<path d="M19.1355 78.2181H57.3367L38.271 111.391L19.1355 78.2181Z" fill="#484DA0"/>
<path d="M57.4763 210.7H95.6775L76.542 177.597L57.4763 210.7Z" fill="#EF4E66"/>
<path d="M76.542 177.597H114.813L95.6775 144.494L76.542 177.597Z" fill="#F58D4E"/>
<path d="M95.6775 144.494H133.949L114.813 111.391L95.6775 144.494Z" fill="#FEC90F"/>
<path d="M95.6775 144.354H133.949L114.813 177.527L95.6775 144.354Z" fill="#FBAF3F"/>
<path d="M57.4065 111.112H95.6775L76.542 77.9388L57.4065 111.112Z" fill="#82C672"/>
<path d="M57.4065 110.972H95.6775L76.542 144.075L57.4065 110.972Z" fill="#489E99"/>
<path d="M114.743 111.181H153.014L133.879 144.284L114.743 111.181Z" fill="#C1C72F"/>
<path d="M76.542 177.597H114.813L95.6775 210.7L76.542 177.597Z" fill="#F2726D"/>
<path d="M57.4065 210.7L76.542 177.597H38.271L57.4065 210.7Z" fill="#EC2285"/>
<path d="M38.3408 177.597L57.4763 144.494H19.2053L38.3408 177.597Z" fill="#6C3B97"/>
<path d="M19.2053 144.494L38.3408 111.391H0.0698395L19.2053 144.494Z" fill="#4C3493"/>
<path d="M19.1355 144.424L38.271 111.321L57.3367 144.424H19.1355Z" fill="#573795"/>
<path d="M38.271 177.597L57.4065 144.494L76.542 177.597H38.271Z" fill="#AC2D91"/>
<path d="M57.4763 33.103H95.6775L76.542 0L57.4763 33.103Z" fill="#46C8EF"/>
</svg>
