<svg width="610" height="309" viewBox="0 0 610 309" fill="none" xmlns="http://www.w3.org/2000/svg">
<rect x="4" y="4" width="602" height="301" stroke="#615EEC" stroke-width="8"/>
<path d="M107.688 194C107.479 194 107.333 193.938 107.25 193.812C107.208 193.688 107.188 193.583 107.188 193.5V190.125C107.188 190.042 107.208 189.938 107.25 189.812C107.292 189.688 107.438 189.625 107.688 189.625H109.188C109.312 189.625 109.708 189.604 110.375 189.562C111.083 189.479 111.875 189.375 112.75 189.25C113.667 189.083 114.604 188.875 115.562 188.625C116.521 188.375 117.333 188.062 118 187.688C119.458 186.854 120.542 185.792 121.25 184.5C121.958 183.167 122.312 181.688 122.312 180.062V117.688C122.312 116.188 121.812 114.958 120.812 114C119.854 113.042 118.688 112.292 117.312 111.75C115.979 111.167 114.604 110.771 113.188 110.562C111.812 110.354 110.708 110.25 109.875 110.25H108.5C108.292 110.25 108.146 110.188 108.062 110.062C108.021 109.896 108 109.792 108 109.75V106.375C108 106.292 108.021 106.188 108.062 106.062C108.146 105.938 108.292 105.875 108.5 105.875H156.438C156.646 105.875 156.771 105.938 156.812 106.062C156.896 106.188 156.938 106.292 156.938 106.375V109.75C156.938 109.833 156.896 109.938 156.812 110.062C156.771 110.188 156.646 110.25 156.438 110.25H153.75C151.417 110.25 149.25 110.438 147.25 110.812C145.25 111.188 143.625 111.604 142.375 112.062C141.417 112.396 140.792 112.958 140.5 113.75C140.25 114.5 140.125 115.812 140.125 117.688V183.25C140.208 183.958 140.583 184.625 141.25 185.25C141.917 185.875 142.667 186.188 143.5 186.188H165.375C166.833 186.188 168.208 185.875 169.5 185.25C170.833 184.625 172.062 183.833 173.188 182.875C174.312 181.875 175.354 180.792 176.312 179.625C177.271 178.458 178.146 177.333 178.938 176.25C179.729 175.167 180.438 174.208 181.062 173.375C181.688 172.5 182.229 171.875 182.688 171.5C182.896 171.375 183.125 171.25 183.375 171.125C183.667 171 184 170.938 184.375 170.938C185.083 170.938 185.438 171.208 185.438 171.75C185.438 172 185.375 172.25 185.25 172.5L174.875 192.875C174.708 193.208 174.521 193.479 174.312 193.688C174.104 193.896 173.854 194 173.562 194H107.688ZM242.312 195.625C240.854 195.625 239.021 195.5 236.812 195.25C234.646 195 232.25 194.542 229.625 193.875C227.042 193.208 224.333 192.333 221.5 191.25C218.667 190.167 215.875 188.792 213.125 187.125C210.417 185.417 207.833 183.417 205.375 181.125C202.917 178.792 200.75 176.104 198.875 173.062C197.042 169.979 195.562 166.479 194.438 162.562C193.354 158.646 192.812 154.25 192.812 149.375C192.812 145.042 193.396 140.896 194.562 136.938C195.771 132.979 197.479 129.292 199.688 125.875C201.896 122.458 204.562 119.354 207.688 116.562C210.854 113.771 214.375 111.396 218.25 109.438C222.125 107.479 226.333 105.958 230.875 104.875C235.417 103.792 240.188 103.25 245.188 103.25C249.521 103.25 253.708 103.792 257.75 104.875C261.833 105.917 265.646 107.417 269.188 109.375C272.729 111.292 275.958 113.604 278.875 116.312C281.833 119.021 284.375 122.042 286.5 125.375C288.625 128.708 290.271 132.312 291.438 136.188C292.604 140.021 293.188 144.021 293.188 148.188C293.188 152.104 292.625 156 291.5 159.875C290.375 163.708 288.75 167.396 286.625 170.938C284.5 174.438 281.917 177.688 278.875 180.688C275.875 183.688 272.5 186.312 268.75 188.562C265 190.771 260.896 192.5 256.438 193.75C251.979 195 247.271 195.625 242.312 195.625ZM211.188 147.062C211.188 150.438 211.521 153.812 212.188 157.188C212.896 160.562 213.917 163.812 215.25 166.938C216.583 170.062 218.229 173 220.188 175.75C222.146 178.458 224.375 180.833 226.875 182.875C229.375 184.875 232.146 186.458 235.188 187.625C238.271 188.75 241.604 189.312 245.188 189.312C250.229 189.312 254.604 188.25 258.312 186.125C262.021 183.958 265.083 181.104 267.5 177.562C269.958 174.021 271.771 169.958 272.938 165.375C274.146 160.75 274.75 155.979 274.75 151.062C274.75 147.479 274.396 143.979 273.688 140.562C273.021 137.104 272.021 133.833 270.688 130.75C269.396 127.625 267.771 124.771 265.812 122.188C263.896 119.562 261.667 117.292 259.125 115.375C256.625 113.458 253.833 111.979 250.75 110.938C247.708 109.854 244.396 109.312 240.812 109.312C237.604 109.312 234.646 109.812 231.938 110.812C229.229 111.812 226.771 113.188 224.562 114.938C222.396 116.646 220.479 118.708 218.812 121.125C217.146 123.5 215.75 126.083 214.625 128.875C213.5 131.667 212.646 134.625 212.062 137.75C211.479 140.833 211.188 143.938 211.188 147.062ZM307.25 149.188C307.25 144.979 307.812 140.938 308.938 137.062C310.062 133.188 311.646 129.562 313.688 126.188C315.729 122.771 318.167 119.688 321 116.938C323.875 114.146 327.021 111.75 330.438 109.75C333.854 107.75 337.5 106.208 341.375 105.125C345.292 104.042 349.312 103.5 353.438 103.5C355.646 103.5 357.896 103.646 360.188 103.938C362.479 104.188 364.708 104.521 366.875 104.938C369.083 105.354 371.167 105.812 373.125 106.312C375.083 106.812 376.792 107.271 378.25 107.688C379.75 108.104 380.958 108.458 381.875 108.75C382.833 109 383.375 109.125 383.5 109.125H384.25C384.583 109.125 384.833 109.104 385 109.062C385.208 108.979 385.375 108.896 385.5 108.812C385.667 108.729 385.833 108.667 386 108.625C386.167 108.542 386.417 108.5 386.75 108.5H389.25C389.333 108.5 389.458 108.542 389.625 108.625C389.833 108.667 389.938 108.854 389.938 109.188V130C389.938 130.458 389.729 130.771 389.312 130.938C388.938 131.104 388.604 131.188 388.312 131.188C387.938 131.146 387.604 130.938 387.312 130.562C387.021 130.188 386.75 129.771 386.5 129.312C386.25 128.854 386.042 128.417 385.875 128C385.708 127.583 385.604 127.271 385.562 127.062C384.521 123.812 383.042 121.083 381.125 118.875C379.25 116.625 377.021 114.792 374.438 113.375C371.896 111.958 369.083 110.938 366 110.312C362.958 109.688 359.75 109.375 356.375 109.375C350.583 109.375 345.75 110.438 341.875 112.562C338 114.688 334.875 117.542 332.5 121.125C330.167 124.708 328.5 128.854 327.5 133.562C326.542 138.229 326.062 143.146 326.062 148.312C326.062 151.854 326.417 155.333 327.125 158.75C327.833 162.167 328.833 165.417 330.125 168.5C331.458 171.542 333.062 174.354 334.938 176.938C336.812 179.479 338.896 181.688 341.188 183.562C343.521 185.396 346.021 186.833 348.688 187.875C351.396 188.917 354.25 189.438 357.25 189.438C360.625 189.438 363.583 189.083 366.125 188.375C368.708 187.625 370.792 186.188 372.375 184.062V170.25C372.375 168.458 372.146 166.875 371.688 165.5C371.271 164.083 370.479 162.896 369.312 161.938C368.146 160.979 366.562 160.25 364.562 159.75C362.562 159.25 360 159 356.875 159C356.625 159 356.438 158.771 356.312 158.312C356.229 157.812 356.188 157.396 356.188 157.062C356.188 156.854 356.229 156.5 356.312 156C356.438 155.5 356.625 155.25 356.875 155.25H400.375C400.708 155.25 400.896 155.5 400.938 156C401.021 156.458 401.062 156.812 401.062 157.062C401.062 157.271 401.021 157.604 400.938 158.062C400.854 158.521 400.667 158.833 400.375 159C399.25 159.458 398.083 159.854 396.875 160.188C395.708 160.521 394.625 160.958 393.625 161.5C392.625 162.042 391.792 162.792 391.125 163.75C390.5 164.667 390.188 165.938 390.188 167.562V185.812C390.188 186.146 390.042 186.417 389.75 186.625C389.5 186.833 389.083 187.062 388.5 187.312C386.167 188.438 383.521 189.5 380.562 190.5C377.604 191.5 374.562 192.396 371.438 193.188C368.312 193.938 365.208 194.542 362.125 195C359.042 195.458 356.229 195.688 353.688 195.688C347.229 195.688 341.188 194.625 335.562 192.5C329.938 190.333 325.021 187.25 320.812 183.25C316.604 179.208 313.292 174.312 310.875 168.562C308.458 162.812 307.25 156.354 307.25 149.188ZM460.562 195.625C459.104 195.625 457.271 195.5 455.062 195.25C452.896 195 450.5 194.542 447.875 193.875C445.292 193.208 442.583 192.333 439.75 191.25C436.917 190.167 434.125 188.792 431.375 187.125C428.667 185.417 426.083 183.417 423.625 181.125C421.167 178.792 419 176.104 417.125 173.062C415.292 169.979 413.812 166.479 412.688 162.562C411.604 158.646 411.062 154.25 411.062 149.375C411.062 145.042 411.646 140.896 412.812 136.938C414.021 132.979 415.729 129.292 417.938 125.875C420.146 122.458 422.812 119.354 425.938 116.562C429.104 113.771 432.625 111.396 436.5 109.438C440.375 107.479 444.583 105.958 449.125 104.875C453.667 103.792 458.438 103.25 463.438 103.25C467.771 103.25 471.958 103.792 476 104.875C480.083 105.917 483.896 107.417 487.438 109.375C490.979 111.292 494.208 113.604 497.125 116.312C500.083 119.021 502.625 122.042 504.75 125.375C506.875 128.708 508.521 132.312 509.688 136.188C510.854 140.021 511.438 144.021 511.438 148.188C511.438 152.104 510.875 156 509.75 159.875C508.625 163.708 507 167.396 504.875 170.938C502.75 174.438 500.167 177.688 497.125 180.688C494.125 183.688 490.75 186.312 487 188.562C483.25 190.771 479.146 192.5 474.688 193.75C470.229 195 465.521 195.625 460.562 195.625ZM429.438 147.062C429.438 150.438 429.771 153.812 430.438 157.188C431.146 160.562 432.167 163.812 433.5 166.938C434.833 170.062 436.479 173 438.438 175.75C440.396 178.458 442.625 180.833 445.125 182.875C447.625 184.875 450.396 186.458 453.438 187.625C456.521 188.75 459.854 189.312 463.438 189.312C468.479 189.312 472.854 188.25 476.562 186.125C480.271 183.958 483.333 181.104 485.75 177.562C488.208 174.021 490.021 169.958 491.188 165.375C492.396 160.75 493 155.979 493 151.062C493 147.479 492.646 143.979 491.938 140.562C491.271 137.104 490.271 133.833 488.938 130.75C487.646 127.625 486.021 124.771 484.062 122.188C482.146 119.562 479.917 117.292 477.375 115.375C474.875 113.458 472.083 111.979 469 110.938C465.958 109.854 462.646 109.312 459.062 109.312C455.854 109.312 452.896 109.812 450.188 110.812C447.479 111.812 445.021 113.188 442.812 114.938C440.646 116.646 438.729 118.708 437.062 121.125C435.396 123.5 434 126.083 432.875 128.875C431.75 131.667 430.896 134.625 430.312 137.75C429.729 140.833 429.438 143.938 429.438 147.062Z" fill="#615EEC"/>
</svg>
