<svg width="202" height="45" viewBox="0 0 202 45" fill="none" xmlns="http://www.w3.org/2000/svg">
<path fill-rule="evenodd" clip-rule="evenodd" d="M14 30.1C15.1333 30.1 16.3333 30 17.6 29.8C18.8666 29.6 20.1334 29.3 21.4 28.9V33.3C20.6 33.6333 19.4334 33.9333 17.9 34.2C16.3 34.4667 14.6334 34.6 12.9 34.6C11.2334 34.6 9.6 34.4 8 34C6.46667 33.6 5.13333 32.9333 4 32C2.86667 31.0667 1.96665 29.8667 1.29999 28.4C0.633321 26.9333 0.299988 25.1667 0.299988 23.1C0.299988 21.0333 0.600012 19.2333 1.20001 17.7C1.86668 16.1 2.73332 14.8 3.79999 13.8C4.86665 12.8 6.06669 12.0333 7.40002 11.5C8.80002 11.0333 10.2333 10.8 11.7 10.8C13.2333 10.8 14.6334 11 15.9 11.4C17.2334 11.8667 18.3667 12.5667 19.3 13.5C20.2333 14.4333 20.9667 15.6333 21.5 17.1C22.0333 18.5667 22.3 20.3 22.3 22.3C22.2333 23.1 22.2 23.7667 22.2 24.3H6.29999C6.36665 25.3667 6.63331 26.2667 7.09998 27C7.49998 27.7333 8.03335 28.3333 8.70001 28.8C9.36668 29.2667 10.1666 29.6 11.1 29.8C11.9666 30 12.9333 30.1 14 30.1ZM11.6 15.1C10.8666 15.1 10.2 15.2333 9.59998 15.5C8.99998 15.7667 8.49998 16.1 8.09998 16.5C7.69998 16.9667 7.36664 17.5 7.09998 18.1C6.83331 18.7 6.66664 19.3333 6.59998 20H16.1C16.1 19.3333 16 18.7 15.8 18.1C15.6 17.5 15.3333 16.9667 15 16.5C14.6 16.1 14.1333 15.7667 13.6 15.5C13 15.2333 12.3333 15.1 11.6 15.1Z" fill="#231F20"/>
<path fill-rule="evenodd" clip-rule="evenodd" d="M26.5 23.1C26.5 21.1667 26.8 19.4 27.4 17.8C28 16.2667 28.8 14.9667 29.8 13.9C30.8 12.8333 31.9333 12.0333 33.2 11.5C34.5333 11.0333 35.9 10.8 37.3 10.8C37.9667 10.8 38.5666 10.8333 39.1 10.9C39.7 11.0333 40.2667 11.2 40.8 11.4C41.3333 11.6 41.8 11.8 42.2 12C42.6667 12.2667 43.1 12.5 43.5 12.7C43.5 12.4333 43.5 12 43.5 11.4C43.5 10.8 43.5 10.1667 43.5 9.5V0.100006H49.4V27.3C49.4 28.7667 49.4333 30.0667 49.5 31.2C49.5 32.2667 49.5333 33.2 49.6 34H44.2L44 31.6H43.9C43.5 32 43.0666 32.4 42.6 32.8C42.1333 33.1333 41.6 33.4333 41 33.7C40.4 34.0333 39.7333 34.2667 39 34.4C38.3333 34.5333 37.5667 34.6 36.7 34.6C35.3667 34.6 34.1 34.4 32.9 34C31.7 33.5333 30.6333 32.8333 29.7 31.9C28.7 31.0333 27.9334 29.8333 27.4 28.3C26.8 26.8333 26.5 25.1 26.5 23.1ZM38.2 30.2C38.8 30.2 39.3333 30.1333 39.8 30C40.3333 29.8667 40.8333 29.6667 41.3 29.4C41.7667 29.2 42.2 28.9333 42.6 28.6C42.9333 28.3333 43.2333 28.0667 43.5 27.8V17C42.7667 16.4667 41.9666 16.0333 41.1 15.7C40.2333 15.3667 39.3334 15.2 38.4 15.2C37.8 15.2 37.1334 15.3 36.4 15.5C35.7334 15.7667 35.1333 16.1667 34.6 16.7C34.0666 17.3 33.6 18.1 33.2 19.1C32.8 20.1 32.6 21.3667 32.6 22.9C32.6 25.1667 33.0667 26.9333 34 28.2C35 29.5333 36.4 30.2 38.2 30.2Z" fill="#231F20"/>
<path d="M67 34.6C64.5333 34.6 62.5 34.2333 60.9 33.5C59.3 32.7 58.1 31.6333 57.3 30.3C56.9 29.6333 56.6 28.8667 56.4 28C56.2 27.1333 56.0667 26.2 56 25.2V11.3H62V24.6C62 25.4 62.0333 26.0667 62.1 26.6C62.2333 27.1333 62.4333 27.6 62.7 28C63.1 28.7333 63.6667 29.2667 64.4 29.6C65.1334 29.9333 66 30.1 67 30.1C68.0667 30.1 68.9667 29.9 69.7 29.5C70.5 29.1 71.0667 28.5333 71.4 27.8C71.8 27.0667 72 26.0333 72 24.7V11.3H77.9V25.2C77.9 27.0667 77.5667 28.6333 76.9 29.9C76.5 30.5667 76 31.2 75.4 31.8C74.8 32.4 74.1 32.9 73.3 33.3C72.4333 33.7 71.5 34.0333 70.5 34.3C69.4333 34.5 68.2667 34.6 67 34.6Z" fill="#231F20"/>
<path fill-rule="evenodd" clip-rule="evenodd" d="M96.3 34.6C95.0333 34.6 93.8667 34.4 92.8 34C91.7333 33.5333 90.8333 32.9667 90.1 32.3H90C90.0667 32.6333 90.1 33.0667 90.1 33.6C90.1 34.2 90.1 34.8333 90.1 35.5V44.9H84.2V11.3H89.4L89.6 13.9H89.7C90.4333 12.9667 91.4 12.2 92.6 11.6C93.7333 11.0667 95.0666 10.8 96.6 10.8C97.8666 10.8 99.1667 11.0333 100.5 11.5C101.767 11.9 102.867 12.6 103.8 13.6C104.8 14.5333 105.6 15.7333 106.2 17.2C106.8 18.6667 107.1 20.4 107.1 22.4C107.1 24.4667 106.767 26.2667 106.1 27.8C105.5 29.3333 104.667 30.6333 103.6 31.7C102.6 32.7 101.467 33.4333 100.2 33.9C98.9333 34.3667 97.6333 34.6 96.3 34.6ZM95.5 15.2C94.5 15.2 93.5333 15.4333 92.6 15.9C91.6666 16.3667 90.8333 17 90.1 17.8V27.9C90.3666 28.1667 90.6667 28.4333 91 28.7C91.3333 28.9667 91.7333 29.2 92.2 29.4C92.6 29.6667 93.0666 29.8667 93.6 30C94.1333 30.1333 94.7 30.2 95.3 30.2C96.1667 30.2 96.9667 30 97.7 29.6C98.4333 29.2667 99.0333 28.7667 99.5 28.1C99.9667 27.4333 100.333 26.6333 100.6 25.7C100.867 24.7667 101 23.7333 101 22.6C101 21.3333 100.867 20.2667 100.6 19.4C100.333 18.4667 99.9667 17.7 99.5 17.1C99.0333 16.5 98.4667 16.0333 97.8 15.7C97.1333 15.3667 96.3667 15.2 95.5 15.2Z" fill="#231F20"/>
<path d="M126.7 15.7H126.2C124.4 15.7 122.8 15.9667 121.4 16.5C120.067 17.0333 119.033 17.8 118.3 18.8V34H112.3V11.3H117.2L117.8 14.5H117.9C118.567 13.3667 119.533 12.4667 120.8 11.8C122 11.1333 123.467 10.8 125.2 10.8C125.8 10.8 126.3 10.8333 126.7 10.9V15.7Z" fill="#231F20"/>
<path d="M130.4 11.3H136.3V34H130.4V11.3Z" fill="#231F20"/>
<path d="M153.7 27.4C153.7 26.9333 153.533 26.5667 153.2 26.3C152.933 25.9667 152.567 25.7 152.1 25.5C151.633 25.3 151.067 25.1 150.4 24.9C149.8 24.7667 149.167 24.6 148.5 24.4C147.633 24.2 146.8 23.9667 146 23.7C145.2 23.4333 144.467 23.0333 143.8 22.5C143.2 22.0333 142.733 21.4667 142.4 20.8C142.067 20.0667 141.9 19.2 141.9 18.2C141.9 16.9333 142.133 15.8333 142.6 14.9C143.067 13.9667 143.7 13.2 144.5 12.6C145.367 12 146.333 11.5333 147.4 11.2C148.533 10.9333 149.7 10.8 150.9 10.8C152.367 10.8 153.767 10.9 155.1 11.1C156.367 11.3 157.533 11.6 158.6 12V16.5C158 16.3 157.4 16.1333 156.8 16C156.2 15.8667 155.6 15.7333 155 15.6C154.4 15.5333 153.767 15.4667 153.1 15.4C152.5 15.3333 151.933 15.3 151.4 15.3C150.667 15.3 150.067 15.3333 149.6 15.4C149.133 15.5333 148.733 15.7333 148.4 16C148.133 16.2 147.933 16.4333 147.8 16.7C147.667 16.9667 147.6 17.2333 147.6 17.5C147.6 18.0333 147.733 18.4667 148 18.8C148.333 19.1333 148.733 19.4 149.2 19.6C149.733 19.8 150.3 19.9667 150.9 20.1C151.433 20.2333 151.967 20.3667 152.5 20.5C153.367 20.7 154.2 20.9333 155 21.2C155.8 21.4667 156.533 21.8333 157.2 22.3C157.867 22.7667 158.433 23.3667 158.9 24.1C159.3 24.9 159.5 25.8667 159.5 27C159.5 28.2667 159.233 29.4 158.7 30.4C158.233 31.3333 157.533 32.1333 156.6 32.8C155.667 33.4 154.567 33.8667 153.3 34.2C151.967 34.4667 150.533 34.6 149 34.6C147.467 34.6 146.1 34.5 144.9 34.3C143.633 34.0333 142.6 33.7333 141.8 33.4V28.9C143.133 29.3667 144.333 29.7 145.4 29.9C146.533 30.0333 147.567 30.1 148.5 30.1C149.233 30.1 149.933 30.0667 150.6 30C151.2 29.8667 151.733 29.7 152.2 29.5C152.667 29.3 153.033 29.0333 153.3 28.7C153.567 28.3667 153.7 27.9333 153.7 27.4Z" fill="#231F20"/>
<path d="M195.8 20.2C195.8 19.7333 195.8 19.2667 195.8 18.8C195.733 18.4 195.667 18.0333 195.6 17.7C195.4 17.0333 195.033 16.5 194.5 16.1C193.967 15.6333 193.233 15.4 192.3 15.4C191.767 15.4 191.233 15.4667 190.7 15.6C190.167 15.7333 189.633 15.9333 189.1 16.2C188.5 16.4667 187.967 16.8 187.5 17.2C187.033 17.5333 186.6 17.9333 186.2 18.4V34H180.2V20.2C180.2 19.7333 180.2 19.2667 180.2 18.8C180.133 18.4 180.067 18.0333 180 17.7C179.8 17.0333 179.467 16.5 179 16.1C178.467 15.6333 177.7 15.4 176.7 15.4C176.167 15.4 175.633 15.4667 175.1 15.6C174.567 15.7333 174.033 15.9333 173.5 16.2C172.9 16.4667 172.367 16.8 171.9 17.2C171.433 17.5333 171 17.9333 170.6 18.4V34H164.6V11.3H169.5L170.1 14.5H170.2C170.533 14.0333 170.967 13.5667 171.5 13.1C172.033 12.6333 172.633 12.2333 173.3 11.9C173.967 11.5667 174.733 11.3 175.6 11.1C176.4 10.9 177.233 10.8 178.1 10.8C179.7 10.8 181.133 11.1333 182.4 11.8C183.667 12.4667 184.633 13.5 185.3 14.9H185.4C185.867 14.2333 186.4 13.6667 187 13.2C187.6 12.6667 188.233 12.2333 188.9 11.9C189.633 11.5667 190.4 11.3 191.2 11.1C192 10.9 192.867 10.8 193.8 10.8C195.533 10.8 196.967 11.1333 198.1 11.8C199.3 12.4667 200.2 13.3667 200.8 14.5C201 14.8333 201.167 15.1667 201.3 15.5C201.367 15.8333 201.467 16.2333 201.6 16.7C201.667 17.1 201.7 17.5667 201.7 18.1C201.767 18.6333 201.8 19.2333 201.8 19.9V34H195.8V20.2Z" fill="#231F20"/>
<path d="M133.2 0.600006L137.5 8H128.9L133.2 0.600006Z" fill="#489E99"/>
<path d="M133.2 0.600006L137.5 8.10001L141.8 0.600006H133.2Z" fill="#82C672"/>
</svg>
