<svg width="202" height="45" viewBox="0 0 202 45" fill="none" xmlns="http://www.w3.org/2000/svg">
<path fill-rule="evenodd" clip-rule="evenodd" d="M13.7 30C14.8333 30 16.0333 29.9 17.3 29.7C18.5667 29.5 19.8334 29.2 21.1 28.8V33.2C20.3 33.5333 19.1334 33.8333 17.6 34.1C16 34.3667 14.3334 34.5 12.6 34.5C10.9334 34.5 9.30001 34.3 7.70001 33.9C6.16668 33.5 4.83335 32.8333 3.70001 31.9C2.56668 30.9667 1.66667 29.7667 1 28.3C0.333333 26.8333 0 25.0667 0 23C0 20.9333 0.300024 19.1333 0.900024 17.6C1.56669 16 2.43333 14.7 3.5 13.7C4.56667 12.7 5.7667 11.9333 7.10004 11.4C8.50004 10.9333 9.93336 10.7 11.4 10.7C12.9334 10.7 14.3334 10.9 15.6 11.3C16.9334 11.7667 18.0667 12.4667 19 13.4C19.9333 14.3333 20.6667 15.5333 21.2 17C21.7333 18.4667 22 20.2 22 22.2C21.9333 23 21.9 23.6666 21.9 24.2H6C6.06667 25.2666 6.33332 26.1667 6.79999 26.9C7.19999 27.6333 7.73336 28.2333 8.40002 28.7C9.06669 29.1666 9.86665 29.5 10.8 29.7C11.6667 29.9 12.6333 30 13.7 30ZM11.3 15C10.5667 15 9.89999 15.1333 9.29999 15.4C8.69999 15.6667 8.19999 16 7.79999 16.4C7.39999 16.8667 7.06665 17.4 6.79999 18C6.53332 18.6 6.36665 19.2333 6.29999 19.9H15.8C15.8 19.2333 15.7 18.6 15.5 18C15.3 17.4 15.0333 16.8667 14.7 16.4C14.3 16 13.8333 15.6667 13.3 15.4C12.7 15.1333 12.0333 15 11.3 15Z" fill="#FFFFFF"/>
<path fill-rule="evenodd" clip-rule="evenodd" d="M26.2 23C26.2 21.0667 26.5 19.3 27.1 17.7C27.7 16.1666 28.5 14.8667 29.5 13.8C30.5 12.7333 31.6334 11.9333 32.9 11.4C34.2334 10.9333 35.6 10.7 37 10.7C37.6667 10.7 38.2667 10.7333 38.8 10.8C39.4 10.9333 39.9667 11.1 40.5 11.3C41.0333 11.5 41.5 11.7 41.9 11.9C42.3667 12.1667 42.8 12.4 43.2 12.6C43.2 12.3333 43.2 11.9 43.2 11.3C43.2 10.7 43.2 10.0667 43.2 9.39999V0H49.1V27.2C49.1 28.6666 49.1333 29.9667 49.2 31.1C49.2 32.1667 49.2333 33.1 49.3 33.9H43.9L43.7 31.5H43.6C43.2 31.9 42.7667 32.3 42.3 32.7C41.8333 33.0333 41.3 33.3333 40.7 33.6C40.1 33.9333 39.4333 34.1667 38.7 34.3C38.0333 34.4333 37.2667 34.5 36.4 34.5C35.0667 34.5 33.8 34.3 32.6 33.9C31.4 33.4333 30.3334 32.7333 29.4 31.8C28.4 30.9333 27.6334 29.7333 27.1 28.2C26.5 26.7333 26.2 25 26.2 23ZM37.9 30.1C38.5 30.1 39.0333 30.0333 39.5 29.9C40.0333 29.7667 40.5333 29.5667 41 29.3C41.4667 29.1 41.9 28.8333 42.3 28.5C42.6333 28.2333 42.9333 27.9666 43.2 27.7V16.9C42.4667 16.3667 41.6667 15.9333 40.8 15.6C39.9333 15.2667 39.0334 15.1 38.1 15.1C37.5 15.1 36.8334 15.2 36.1 15.4C35.4334 15.6667 34.8333 16.0667 34.3 16.6C33.7667 17.2 33.3 18 32.9 19C32.5 20 32.3 21.2667 32.3 22.8C32.3 25.0667 32.7667 26.8333 33.7 28.1C34.7 29.4333 36.1 30.1 37.9 30.1Z" fill="#FFFFFF"/>
<path d="M66.7 34.5C64.2333 34.5 62.2 34.1333 60.6 33.4C59 32.6 57.8 31.5333 57 30.2C56.6 29.5333 56.3 28.7667 56.1 27.9C55.9 27.0333 55.7667 26.1 55.7 25.1V11.2H61.7V24.5C61.7 25.3 61.7333 25.9667 61.8 26.5C61.9333 27.0333 62.1334 27.5 62.4 27.9C62.8 28.6333 63.3667 29.1667 64.1 29.5C64.8334 29.8333 65.7 30 66.7 30C67.7667 30 68.6667 29.8 69.4 29.4C70.2 29 70.7667 28.4333 71.1 27.7C71.5 26.9666 71.7 25.9333 71.7 24.6V11.2H77.6V25.1C77.6 26.9667 77.2667 28.5333 76.6 29.8C76.2 30.4667 75.7 31.1 75.1 31.7C74.5 32.3 73.8 32.8 73 33.2C72.1333 33.6 71.2 33.9333 70.2 34.2C69.1333 34.4 67.9667 34.5 66.7 34.5Z" fill="#FFFFFF"/>
<path fill-rule="evenodd" clip-rule="evenodd" d="M96 34.5C94.7333 34.5 93.5667 34.3 92.5 33.9C91.4333 33.4333 90.5333 32.8666 89.8 32.2H89.7C89.7667 32.5333 89.8 32.9667 89.8 33.5C89.8 34.1 89.8 34.7333 89.8 35.4V44.8H83.9V11.2H89.1L89.3 13.8H89.4C90.1334 12.8667 91.1 12.1 92.3 11.5C93.4333 10.9667 94.7667 10.7 96.3 10.7C97.5667 10.7 98.8667 10.9333 100.2 11.4C101.467 11.8 102.567 12.5 103.5 13.5C104.5 14.4333 105.3 15.6333 105.9 17.1C106.5 18.5667 106.8 20.3 106.8 22.3C106.8 24.3667 106.467 26.1666 105.8 27.7C105.2 29.2333 104.367 30.5333 103.3 31.6C102.3 32.6 101.167 33.3333 99.9 33.8C98.6334 34.2667 97.3333 34.5 96 34.5ZM95.2 15.1C94.2 15.1 93.2333 15.3333 92.3 15.8C91.3667 16.2667 90.5333 16.9 89.8 17.7V27.8C90.0667 28.0667 90.3667 28.3333 90.7 28.6C91.0333 28.8667 91.4334 29.1 91.9 29.3C92.3 29.5667 92.7667 29.7667 93.3 29.9C93.8333 30.0333 94.4 30.1 95 30.1C95.8667 30.1 96.6667 29.9 97.4 29.5C98.1334 29.1667 98.7333 28.6667 99.2 28C99.6667 27.3333 100.033 26.5333 100.3 25.6C100.567 24.6667 100.7 23.6333 100.7 22.5C100.7 21.2333 100.567 20.1667 100.3 19.3C100.033 18.3667 99.6667 17.6 99.2 17C98.7333 16.4 98.1667 15.9333 97.5 15.6C96.8333 15.2667 96.0667 15.1 95.2 15.1Z" fill="#FFFFFF"/>
<path d="M126.4 15.6H125.9C124.1 15.6 122.5 15.8667 121.1 16.4C119.767 16.9333 118.733 17.7 118 18.7V33.9H112V11.2H116.9L117.5 14.4H117.6C118.267 13.2667 119.233 12.3666 120.5 11.7C121.7 11.0333 123.167 10.7 124.9 10.7C125.5 10.7 126 10.7333 126.4 10.8V15.6Z" fill="#FFFFFF"/>
<path d="M130.1 11.2H136V33.9H130.1V11.2Z" fill="#FFFFFF"/>
<path d="M153.4 27.3C153.4 26.8333 153.233 26.4666 152.9 26.2C152.633 25.8666 152.267 25.6 151.8 25.4C151.333 25.2 150.767 25 150.1 24.8C149.5 24.6667 148.867 24.5 148.2 24.3C147.333 24.1 146.5 23.8667 145.7 23.6C144.9 23.3333 144.167 22.9333 143.5 22.4C142.9 21.9333 142.433 21.3666 142.1 20.7C141.767 19.9666 141.6 19.1 141.6 18.1C141.6 16.8333 141.833 15.7333 142.3 14.8C142.767 13.8667 143.4 13.1 144.2 12.5C145.067 11.9 146.033 11.4333 147.1 11.1C148.233 10.8333 149.4 10.7 150.6 10.7C152.067 10.7 153.467 10.8 154.8 11C156.067 11.2 157.233 11.5 158.3 11.9V16.4C157.7 16.2 157.1 16.0333 156.5 15.9C155.9 15.7667 155.3 15.6333 154.7 15.5C154.1 15.4333 153.467 15.3667 152.8 15.3C152.2 15.2333 151.633 15.2 151.1 15.2C150.367 15.2 149.767 15.2333 149.3 15.3C148.833 15.4333 148.433 15.6333 148.1 15.9C147.833 16.1 147.633 16.3333 147.5 16.6C147.367 16.8667 147.3 17.1333 147.3 17.4C147.3 17.9333 147.433 18.3666 147.7 18.7C148.033 19.0333 148.433 19.3 148.9 19.5C149.433 19.7 150 19.8667 150.6 20C151.133 20.1333 151.667 20.2667 152.2 20.4C153.067 20.6 153.9 20.8333 154.7 21.1C155.5 21.3667 156.233 21.7333 156.9 22.2C157.567 22.6666 158.133 23.2667 158.6 24C159 24.8 159.2 25.7667 159.2 26.9C159.2 28.1667 158.933 29.3 158.4 30.3C157.933 31.2333 157.233 32.0333 156.3 32.7C155.367 33.3 154.267 33.7667 153 34.1C151.667 34.3667 150.233 34.5 148.7 34.5C147.167 34.5 145.8 34.4 144.6 34.2C143.333 33.9333 142.3 33.6333 141.5 33.3V28.8C142.833 29.2667 144.033 29.6 145.1 29.8C146.233 29.9333 147.267 30 148.2 30C148.933 30 149.633 29.9667 150.3 29.9C150.9 29.7667 151.433 29.6 151.9 29.4C152.367 29.2 152.733 28.9333 153 28.6C153.267 28.2667 153.4 27.8333 153.4 27.3Z" fill="#FFFFFF"/>
<path d="M195.5 20.1C195.5 19.6333 195.5 19.1666 195.5 18.7C195.433 18.3 195.367 17.9333 195.3 17.6C195.1 16.9333 194.733 16.4 194.2 16C193.667 15.5333 192.933 15.3 192 15.3C191.467 15.3 190.933 15.3667 190.4 15.5C189.867 15.6333 189.333 15.8333 188.8 16.1C188.2 16.3667 187.667 16.7 187.2 17.1C186.733 17.4333 186.3 17.8333 185.9 18.3V33.9H179.9V20.1C179.9 19.6333 179.9 19.1666 179.9 18.7C179.833 18.3 179.767 17.9333 179.7 17.6C179.5 16.9333 179.167 16.4 178.7 16C178.167 15.5333 177.4 15.3 176.4 15.3C175.867 15.3 175.333 15.3667 174.8 15.5C174.267 15.6333 173.733 15.8333 173.2 16.1C172.6 16.3667 172.067 16.7 171.6 17.1C171.133 17.4333 170.7 17.8333 170.3 18.3V33.9H164.3V11.2H169.2L169.8 14.4H169.9C170.233 13.9333 170.667 13.4667 171.2 13C171.733 12.5333 172.333 12.1333 173 11.8C173.667 11.4667 174.433 11.2 175.3 11C176.1 10.8 176.933 10.7 177.8 10.7C179.4 10.7 180.833 11.0333 182.1 11.7C183.367 12.3666 184.333 13.4 185 14.8H185.1C185.567 14.1333 186.1 13.5667 186.7 13.1C187.3 12.5667 187.933 12.1333 188.6 11.8C189.333 11.4667 190.1 11.2 190.9 11C191.7 10.8 192.567 10.7 193.5 10.7C195.233 10.7 196.667 11.0333 197.8 11.7C199 12.3666 199.9 13.2667 200.5 14.4C200.7 14.7333 200.867 15.0667 201 15.4C201.067 15.7333 201.167 16.1333 201.3 16.6C201.367 17 201.4 17.4667 201.4 18C201.467 18.5333 201.5 19.1333 201.5 19.8V33.9H195.5V20.1Z" fill="#FFFFFF"/>
<path d="M132.9 0.5L137.2 7.89999H128.6L132.9 0.5Z" fill="#489E99"/>
<path d="M132.9 0.5L137.2 8L141.5 0.5H132.9Z" fill="#82C672"/>
</svg>
