<svg width="1772" height="1066" viewBox="0 0 1772 1066" fill="none" xmlns="http://www.w3.org/2000/svg">
<rect width="1772" height="1066" fill="#E2E8F0"/>
<path d="M717 390L806.423 300.577C810.044 296.956 814.344 294.083 819.075 292.123C823.807 290.163 828.878 289.154 834 289.154C839.122 289.154 844.193 290.163 848.925 292.123C853.656 294.083 857.956 296.956 861.577 300.577L951 390M925 364L949.423 339.577C953.044 335.956 957.344 333.083 962.075 331.123C966.807 329.163 971.878 328.154 977 328.154C982.122 328.154 987.193 329.163 991.925 331.123C996.657 333.083 1000.96 335.956 1004.58 339.577L1055 390M743 455H1029C1035.9 455 1042.51 452.261 1047.38 447.385C1052.26 442.509 1055 435.896 1055 429V221C1055 214.104 1052.26 207.491 1047.38 202.615C1042.51 197.739 1035.9 195 1029 195H743C736.104 195 729.491 197.739 724.615 202.615C719.739 207.491 717 214.104 717 221V429C717 435.896 719.739 442.509 724.615 447.385C729.491 452.261 736.104 455 743 455ZM925 260H925.139V260.139H925V260ZM931.5 260C931.5 261.724 930.815 263.377 929.596 264.596C928.377 265.815 926.724 266.5 925 266.5C923.276 266.5 921.623 265.815 920.404 264.596C919.185 263.377 918.5 261.724 918.5 260C918.5 258.276 919.185 256.623 920.404 255.404C921.623 254.185 923.276 253.5 925 253.5C926.724 253.5 928.377 254.185 929.596 255.404C930.815 256.623 931.5 258.276 931.5 260Z" stroke="#4B5569" stroke-width="16.5" stroke-linecap="round" stroke-linejoin="round"/>
<path d="M595.588 555.273H602.457V592.832C602.457 596.71 601.543 600.173 599.715 603.219C597.905 606.248 595.348 608.639 592.042 610.393C588.737 612.129 584.859 612.997 580.409 612.997C575.959 612.997 572.081 612.129 568.775 610.393C565.47 608.639 562.903 606.248 561.075 603.219C559.265 600.173 558.361 596.71 558.361 592.832V555.273H565.23V592.278C565.23 595.048 565.839 597.513 567.058 599.674C568.277 601.816 570.013 603.506 572.265 604.743C574.537 605.962 577.251 606.571 580.409 606.571C583.566 606.571 586.281 605.962 588.552 604.743C590.824 603.506 592.559 601.816 593.76 599.674C594.978 597.513 595.588 595.048 595.588 592.278V555.273ZM615.289 627.955V569.455H621.604V576.213H622.38C622.86 575.474 623.524 574.533 624.374 573.388C625.242 572.224 626.479 571.19 628.085 570.286C629.71 569.362 631.908 568.901 634.678 568.901C638.26 568.901 641.418 569.796 644.151 571.587C646.884 573.379 649.017 575.918 650.549 579.205C652.082 582.491 652.848 586.369 652.848 590.838C652.848 595.344 652.082 599.249 650.549 602.555C649.017 605.842 646.893 608.39 644.179 610.2C641.464 611.991 638.334 612.886 634.789 612.886C632.056 612.886 629.867 612.434 628.224 611.529C626.581 610.606 625.316 609.562 624.429 608.399C623.543 607.217 622.86 606.239 622.38 605.463H621.826V627.955H615.289ZM621.715 590.727C621.715 593.94 622.186 596.775 623.127 599.231C624.069 601.668 625.445 603.58 627.255 604.964C629.064 606.331 631.28 607.014 633.902 607.014C636.635 607.014 638.916 606.294 640.744 604.854C642.59 603.395 643.975 601.437 644.899 598.982C645.84 596.507 646.311 593.756 646.311 590.727C646.311 587.736 645.85 585.04 644.926 582.639C644.022 580.22 642.646 578.309 640.799 576.906C638.971 575.484 636.672 574.773 633.902 574.773C631.243 574.773 629.009 575.447 627.199 576.795C625.389 578.124 624.023 579.989 623.1 582.39C622.176 584.772 621.715 587.551 621.715 590.727ZM669.357 555.273V612H662.82V555.273H669.357ZM698.614 612.886C694.773 612.886 691.403 611.972 688.504 610.144C685.623 608.316 683.37 605.759 681.745 602.472C680.139 599.185 679.335 595.344 679.335 590.949C679.335 586.517 680.139 582.648 681.745 579.343C683.37 576.038 685.623 573.471 688.504 571.643C691.403 569.815 694.773 568.901 698.614 568.901C702.455 568.901 705.815 569.815 708.696 571.643C711.595 573.471 713.848 576.038 715.455 579.343C717.08 582.648 717.892 586.517 717.892 590.949C717.892 595.344 717.08 599.185 715.455 602.472C713.848 605.759 711.595 608.316 708.696 610.144C705.815 611.972 702.455 612.886 698.614 612.886ZM698.614 607.014C701.531 607.014 703.932 606.266 705.815 604.771C707.699 603.275 709.093 601.308 709.998 598.871C710.903 596.433 711.355 593.793 711.355 590.949C711.355 588.105 710.903 585.455 709.998 582.999C709.093 580.543 707.699 578.558 705.815 577.044C703.932 575.53 701.531 574.773 698.614 574.773C695.696 574.773 693.296 575.53 691.412 577.044C689.528 578.558 688.134 580.543 687.229 582.999C686.325 585.455 685.872 588.105 685.872 590.949C685.872 593.793 686.325 596.433 687.229 598.871C688.134 601.308 689.528 603.275 691.412 604.771C693.296 606.266 695.696 607.014 698.614 607.014ZM740.391 612.997C737.695 612.997 735.248 612.489 733.05 611.474C730.853 610.44 729.108 608.953 727.815 607.014C726.523 605.057 725.876 602.693 725.876 599.923C725.876 597.486 726.356 595.51 727.317 593.996C728.277 592.463 729.56 591.263 731.167 590.395C732.773 589.527 734.546 588.881 736.485 588.456C738.442 588.013 740.409 587.662 742.385 587.403C744.97 587.071 747.066 586.822 748.672 586.656C750.297 586.471 751.479 586.166 752.218 585.741C752.975 585.317 753.354 584.578 753.354 583.526V583.304C753.354 580.571 752.606 578.447 751.11 576.933C749.633 575.419 747.389 574.662 744.379 574.662C741.258 574.662 738.812 575.345 737.039 576.712C735.266 578.078 734.02 579.537 733.3 581.088L727.095 578.872C728.203 576.287 729.68 574.274 731.527 572.834C733.392 571.375 735.423 570.359 737.621 569.787C739.837 569.196 742.016 568.901 744.158 568.901C745.524 568.901 747.094 569.067 748.866 569.399C750.658 569.713 752.384 570.369 754.046 571.366C755.726 572.363 757.121 573.868 758.229 575.881C759.337 577.893 759.891 580.589 759.891 583.969V612H753.354V606.239H753.021C752.578 607.162 751.839 608.15 750.805 609.202C749.771 610.255 748.396 611.151 746.678 611.889C744.961 612.628 742.865 612.997 740.391 612.997ZM741.388 607.125C743.973 607.125 746.152 606.617 747.925 605.602C749.716 604.586 751.064 603.275 751.969 601.668C752.892 600.062 753.354 598.372 753.354 596.599V590.616C753.077 590.949 752.467 591.254 751.525 591.531C750.602 591.789 749.531 592.02 748.312 592.223C747.112 592.408 745.94 592.574 744.795 592.722C743.668 592.851 742.754 592.962 742.052 593.054C740.354 593.276 738.766 593.636 737.288 594.134C735.829 594.614 734.648 595.344 733.743 596.322C732.856 597.283 732.413 598.594 732.413 600.256C732.413 602.527 733.253 604.244 734.934 605.408C736.633 606.553 738.784 607.125 741.388 607.125ZM787.887 612.886C784.342 612.886 781.212 611.991 778.497 610.2C775.783 608.39 773.659 605.842 772.127 602.555C770.594 599.249 769.828 595.344 769.828 590.838C769.828 586.369 770.594 582.491 772.127 579.205C773.659 575.918 775.792 573.379 778.525 571.587C781.258 569.796 784.416 568.901 787.998 568.901C790.768 568.901 792.956 569.362 794.563 570.286C796.188 571.19 797.425 572.224 798.274 573.388C799.142 574.533 799.816 575.474 800.296 576.213H800.85V555.273H807.387V612H801.072V605.463H800.296C799.816 606.239 799.133 607.217 798.247 608.399C797.36 609.562 796.095 610.606 794.452 611.529C792.808 612.434 790.62 612.886 787.887 612.886ZM788.774 607.014C791.396 607.014 793.612 606.331 795.421 604.964C797.231 603.58 798.607 601.668 799.548 599.231C800.49 596.775 800.961 593.94 800.961 590.727C800.961 587.551 800.499 584.772 799.576 582.39C798.653 579.989 797.286 578.124 795.477 576.795C793.667 575.447 791.433 574.773 788.774 574.773C786.004 574.773 783.695 575.484 781.849 576.906C780.021 578.309 778.645 580.22 777.722 582.639C776.817 585.04 776.364 587.736 776.364 590.727C776.364 593.756 776.826 596.507 777.749 598.982C778.691 601.437 780.076 603.395 781.904 604.854C783.751 606.294 786.041 607.014 788.774 607.014ZM839.989 561.366V555.273H882.534V561.366H864.696V612H857.827V561.366H839.989ZM898.786 586.406V612H892.25V555.273H898.786V576.102H899.34C900.338 573.905 901.833 572.16 903.828 570.867C905.84 569.556 908.518 568.901 911.86 568.901C914.759 568.901 917.299 569.482 919.478 570.646C921.657 571.79 923.346 573.554 924.546 575.936C925.765 578.3 926.375 581.31 926.375 584.966V612H919.838V585.409C919.838 582.03 918.96 579.417 917.206 577.57C915.47 575.705 913.061 574.773 909.977 574.773C907.835 574.773 905.914 575.225 904.215 576.13C902.535 577.035 901.206 578.355 900.227 580.091C899.267 581.827 898.786 583.932 898.786 586.406ZM965.146 594.605V569.455H971.683V612H965.146V604.798H964.703C963.706 606.959 962.155 608.796 960.049 610.31C957.944 611.806 955.285 612.554 952.072 612.554C949.413 612.554 947.049 611.972 944.981 610.809C942.913 609.627 941.288 607.854 940.106 605.491C938.924 603.109 938.334 600.108 938.334 596.489V569.455H944.87V596.045C944.87 599.148 945.738 601.622 947.474 603.469C949.228 605.315 951.463 606.239 954.177 606.239C955.802 606.239 957.455 605.823 959.135 604.992C960.834 604.161 962.256 602.887 963.401 601.17C964.564 599.452 965.146 597.264 965.146 594.605ZM983.656 612V569.455H989.971V576.102H990.525C991.411 573.831 992.843 572.067 994.818 570.812C996.794 569.538 999.167 568.901 1001.94 568.901C1004.74 568.901 1007.08 569.538 1008.94 570.812C1010.83 572.067 1012.3 573.831 1013.35 576.102H1013.79C1014.88 573.905 1016.52 572.16 1018.69 570.867C1020.87 569.556 1023.49 568.901 1026.53 568.901C1030.34 568.901 1033.45 570.092 1035.87 572.474C1038.29 574.837 1039.5 578.521 1039.5 583.526V612H1032.96V583.526C1032.96 580.386 1032.1 578.143 1030.38 576.795C1028.67 575.447 1026.64 574.773 1024.32 574.773C1021.33 574.773 1019.01 575.678 1017.37 577.487C1015.72 579.278 1014.9 581.55 1014.9 584.301V612H1008.25V582.861C1008.25 580.442 1007.47 578.494 1005.9 577.016C1004.33 575.521 1002.31 574.773 999.832 574.773C998.133 574.773 996.545 575.225 995.068 576.13C993.609 577.035 992.427 578.29 991.522 579.897C990.636 581.485 990.193 583.322 990.193 585.409V612H983.656ZM1052.34 612V555.273H1058.87V576.213H1059.43C1059.91 575.474 1060.57 574.533 1061.42 573.388C1062.29 572.224 1063.53 571.19 1065.13 570.286C1066.76 569.362 1068.95 568.901 1071.72 568.901C1075.31 568.901 1078.46 569.796 1081.2 571.587C1083.93 573.379 1086.06 575.918 1087.6 579.205C1089.13 582.491 1089.89 586.369 1089.89 590.838C1089.89 595.344 1089.13 599.249 1087.6 602.555C1086.06 605.842 1083.94 608.39 1081.23 610.2C1078.51 611.991 1075.38 612.886 1071.84 612.886C1069.1 612.886 1066.91 612.434 1065.27 611.529C1063.63 610.606 1062.36 609.562 1061.48 608.399C1060.59 607.217 1059.91 606.239 1059.43 605.463H1058.65V612H1052.34ZM1058.76 590.727C1058.76 593.94 1059.23 596.775 1060.17 599.231C1061.12 601.668 1062.49 603.58 1064.3 604.964C1066.11 606.331 1068.33 607.014 1070.95 607.014C1073.68 607.014 1075.96 606.294 1077.79 604.854C1079.64 603.395 1081.02 601.437 1081.95 598.982C1082.89 596.507 1083.36 593.756 1083.36 590.727C1083.36 587.736 1082.9 585.04 1081.97 582.639C1081.07 580.22 1079.69 578.309 1077.85 576.906C1076.02 575.484 1073.72 574.773 1070.95 574.773C1068.29 574.773 1066.06 575.447 1064.25 576.795C1062.44 578.124 1061.07 579.989 1060.15 582.39C1059.22 584.772 1058.76 587.551 1058.76 590.727ZM1106.43 586.406V612H1099.89V569.455H1106.21V576.102H1106.76C1107.76 573.942 1109.27 572.206 1111.31 570.895C1113.34 569.565 1115.96 568.901 1119.17 568.901C1122.05 568.901 1124.57 569.491 1126.73 570.673C1128.89 571.837 1130.58 573.609 1131.78 575.991C1132.98 578.355 1133.58 581.347 1133.58 584.966V612H1127.04V585.409C1127.04 582.067 1126.17 579.463 1124.44 577.598C1122.7 575.714 1120.32 574.773 1117.29 574.773C1115.2 574.773 1113.34 575.225 1111.69 576.13C1110.07 577.035 1108.79 578.355 1107.84 580.091C1106.9 581.827 1106.43 583.932 1106.43 586.406ZM1158.04 612.997C1155.34 612.997 1152.9 612.489 1150.7 611.474C1148.5 610.44 1146.76 608.953 1145.47 607.014C1144.17 605.057 1143.53 602.693 1143.53 599.923C1143.53 597.486 1144.01 595.51 1144.97 593.996C1145.93 592.463 1147.21 591.263 1148.82 590.395C1150.42 589.527 1152.2 588.881 1154.14 588.456C1156.09 588.013 1158.06 587.662 1160.04 587.403C1162.62 587.071 1164.72 586.822 1166.32 586.656C1167.95 586.471 1169.13 586.166 1169.87 585.741C1170.63 585.317 1171 584.578 1171 583.526V583.304C1171 580.571 1170.26 578.447 1168.76 576.933C1167.28 575.419 1165.04 574.662 1162.03 574.662C1158.91 574.662 1156.46 575.345 1154.69 576.712C1152.92 578.078 1151.67 579.537 1150.95 581.088L1144.75 578.872C1145.85 576.287 1147.33 574.274 1149.18 572.834C1151.04 571.375 1153.07 570.359 1155.27 569.787C1157.49 569.196 1159.67 568.901 1161.81 568.901C1163.17 568.901 1164.74 569.067 1166.52 569.399C1168.31 569.713 1170.03 570.369 1171.7 571.366C1173.38 572.363 1174.77 573.868 1175.88 575.881C1176.99 577.893 1177.54 580.589 1177.54 583.969V612H1171V606.239H1170.67C1170.23 607.162 1169.49 608.15 1168.46 609.202C1167.42 610.255 1166.05 611.151 1164.33 611.889C1162.61 612.628 1160.52 612.997 1158.04 612.997ZM1159.04 607.125C1161.62 607.125 1163.8 606.617 1165.58 605.602C1167.37 604.586 1168.71 603.275 1169.62 601.668C1170.54 600.062 1171 598.372 1171 596.599V590.616C1170.73 590.949 1170.12 591.254 1169.18 591.531C1168.25 591.789 1167.18 592.02 1165.96 592.223C1164.76 592.408 1163.59 592.574 1162.45 592.722C1161.32 592.851 1160.4 592.962 1159.7 593.054C1158 593.276 1156.42 593.636 1154.94 594.134C1153.48 594.614 1152.3 595.344 1151.39 596.322C1150.51 597.283 1150.06 598.594 1150.06 600.256C1150.06 602.527 1150.9 604.244 1152.58 605.408C1154.28 606.553 1156.43 607.125 1159.04 607.125ZM1189.47 612V569.455H1196.01V612H1189.47ZM1192.8 562.364C1191.52 562.364 1190.42 561.93 1189.5 561.062C1188.6 560.194 1188.14 559.151 1188.14 557.932C1188.14 556.713 1188.6 555.67 1189.5 554.802C1190.42 553.934 1191.52 553.5 1192.8 553.5C1194.07 553.5 1195.16 553.934 1196.06 554.802C1196.99 555.67 1197.45 556.713 1197.45 557.932C1197.45 559.151 1196.99 560.194 1196.06 561.062C1195.16 561.93 1194.07 562.364 1192.8 562.364ZM1214.52 555.273V612H1207.98V555.273H1214.52Z" fill="#475569" fill-opacity="0.85098"/>
<path d="M651.702 721.636C651.702 714.656 652.607 708.239 654.417 702.386C656.245 696.513 658.849 691.112 662.228 686.182H667.989C666.66 688.01 665.413 690.263 664.25 692.94C663.105 695.599 662.099 698.526 661.231 701.721C660.363 704.897 659.68 708.184 659.181 711.582C658.701 714.979 658.461 718.331 658.461 721.636C658.461 726.031 658.885 730.491 659.735 735.015C660.584 739.539 661.729 743.74 663.17 747.618C664.61 751.496 666.216 754.653 667.989 757.091H662.228C658.849 752.161 656.245 746.768 654.417 740.915C652.607 735.043 651.702 728.616 651.702 721.636ZM695.584 692.497C697.911 692.516 700.238 692.959 702.564 693.827C704.891 694.695 707.015 696.135 708.935 698.148C710.855 700.142 712.397 702.866 713.561 706.319C714.724 709.772 715.306 714.102 715.306 719.31C715.306 724.351 714.826 728.829 713.865 732.744C712.924 736.64 711.557 739.927 709.766 742.604C707.993 745.282 705.833 747.313 703.284 748.698C700.755 750.083 697.892 750.776 694.698 750.776C691.522 750.776 688.687 750.148 686.194 748.892C683.72 747.618 681.689 745.854 680.1 743.602C678.531 741.33 677.525 738.699 677.081 735.707H683.84C684.449 738.311 685.659 740.462 687.468 742.161C689.297 743.842 691.706 744.682 694.698 744.682C699.074 744.682 702.527 742.771 705.057 738.948C707.605 735.126 708.88 729.724 708.88 722.744H708.436C707.402 724.295 706.174 725.634 704.752 726.761C703.331 727.887 701.752 728.755 700.016 729.364C698.28 729.974 696.434 730.278 694.476 730.278C691.226 730.278 688.244 729.475 685.529 727.869C682.833 726.244 680.673 724.018 679.048 721.193C677.441 718.349 676.638 715.099 676.638 711.443C676.638 707.972 677.414 704.795 678.965 701.915C680.534 699.016 682.732 696.707 685.557 694.99C688.401 693.273 691.743 692.442 695.584 692.497ZM695.584 698.591C693.257 698.591 691.162 699.173 689.297 700.336C687.45 701.481 685.982 703.032 684.892 704.989C683.821 706.928 683.286 709.08 683.286 711.443C683.286 713.807 683.803 715.958 684.837 717.897C685.89 719.817 687.321 721.35 689.13 722.495C690.958 723.621 693.036 724.185 695.363 724.185C697.117 724.185 698.751 723.843 700.265 723.16C701.779 722.458 703.1 721.507 704.226 720.307C705.371 719.088 706.267 717.712 706.913 716.18C707.559 714.629 707.882 713.013 707.882 711.332C707.882 709.116 707.347 707.039 706.276 705.1C705.223 703.161 703.765 701.592 701.9 700.391C700.053 699.191 697.948 698.591 695.584 698.591ZM726.198 750V745.014L744.923 724.517C747.12 722.116 748.93 720.03 750.352 718.257C751.774 716.466 752.826 714.786 753.509 713.216C754.211 711.628 754.562 709.966 754.562 708.23C754.562 706.236 754.082 704.509 753.122 703.05C752.18 701.592 750.887 700.465 749.244 699.671C747.6 698.877 745.754 698.48 743.704 698.48C741.525 698.48 739.623 698.933 737.998 699.837C736.392 700.724 735.145 701.97 734.259 703.577C733.391 705.183 732.957 707.067 732.957 709.227H726.42C726.42 705.903 727.186 702.986 728.719 700.474C730.252 697.963 732.338 696.006 734.979 694.602C737.638 693.199 740.62 692.497 743.926 692.497C747.249 692.497 750.195 693.199 752.762 694.602C755.328 696.006 757.341 697.898 758.8 700.281C760.259 702.663 760.988 705.312 760.988 708.23C760.988 710.317 760.61 712.357 759.852 714.352C759.114 716.327 757.821 718.534 755.975 720.972C754.146 723.391 751.607 726.345 748.357 729.835L735.616 743.463V743.906H761.985V750H726.198ZM791.928 750.776C787.754 750.776 784.2 749.64 781.264 747.369C778.328 745.079 776.084 741.764 774.533 737.425C772.982 733.067 772.206 727.804 772.206 721.636C772.206 715.506 772.982 710.271 774.533 705.931C776.102 701.573 778.355 698.249 781.291 695.96C784.246 693.651 787.791 692.497 791.928 692.497C796.064 692.497 799.6 693.651 802.536 695.96C805.491 698.249 807.744 701.573 809.295 705.931C810.865 710.271 811.649 715.506 811.649 721.636C811.649 727.804 810.874 733.067 809.323 737.425C807.771 741.764 805.528 745.079 802.592 747.369C799.656 749.64 796.101 750.776 791.928 750.776ZM791.928 744.682C796.064 744.682 799.277 742.687 801.567 738.699C803.857 734.71 805.002 729.023 805.002 721.636C805.002 716.724 804.475 712.542 803.423 709.089C802.389 705.636 800.893 703.004 798.936 701.195C796.997 699.385 794.661 698.48 791.928 698.48C787.828 698.48 784.624 700.502 782.316 704.546C780.008 708.572 778.854 714.268 778.854 721.636C778.854 726.548 779.371 730.722 780.405 734.156C781.439 737.591 782.926 740.204 784.865 741.995C786.822 743.786 789.176 744.682 791.928 744.682ZM855.524 739.807L824.28 708.562L828.49 704.352L859.735 735.597L855.524 739.807ZM828.49 739.807L824.28 735.597L855.524 704.352L859.735 708.562L828.49 739.807ZM891.318 750.776C888.068 750.776 885.141 750.129 882.538 748.837C879.934 747.544 877.847 745.771 876.278 743.518C874.708 741.266 873.849 738.699 873.702 735.818H880.349C880.608 738.385 881.771 740.509 883.839 742.189C885.926 743.851 888.419 744.682 891.318 744.682C893.645 744.682 895.713 744.137 897.523 743.048C899.351 741.958 900.782 740.462 901.816 738.56C902.869 736.64 903.395 734.47 903.395 732.051C903.395 729.577 902.85 727.37 901.761 725.431C900.69 723.474 899.212 721.932 897.329 720.805C895.445 719.679 893.294 719.107 890.875 719.088C889.139 719.07 887.357 719.337 885.529 719.891C883.701 720.427 882.196 721.119 881.014 721.969L874.588 721.193L878.023 693.273H907.494V699.366H883.784L881.79 716.097H882.122C883.286 715.173 884.744 714.407 886.499 713.798C888.253 713.188 890.081 712.884 891.983 712.884C895.455 712.884 898.548 713.714 901.262 715.376C903.995 717.02 906.137 719.273 907.688 722.135C909.258 724.997 910.043 728.266 910.043 731.94C910.043 735.56 909.23 738.791 907.605 741.635C905.999 744.46 903.783 746.695 900.957 748.338C898.132 749.963 894.919 750.776 891.318 750.776ZM919.716 738.366V732.716L944.645 693.273H948.745V702.026H945.975L927.14 731.83V732.273H960.711V738.366H919.716ZM946.418 750V736.649V734.018V693.273H952.955V750H946.418ZM971.091 750V745.014L989.815 724.517C992.013 722.116 993.822 720.03 995.244 718.257C996.666 716.466 997.719 714.786 998.402 713.216C999.104 711.628 999.455 709.966 999.455 708.23C999.455 706.236 998.974 704.509 998.014 703.05C997.072 701.592 995.78 700.465 994.136 699.671C992.493 698.877 990.646 698.48 988.597 698.48C986.418 698.48 984.516 698.933 982.891 699.837C981.284 700.724 980.038 701.97 979.151 703.577C978.283 705.183 977.849 707.067 977.849 709.227H971.312C971.312 705.903 972.079 702.986 973.612 700.474C975.144 697.963 977.231 696.006 979.871 694.602C982.531 693.199 985.513 692.497 988.818 692.497C992.142 692.497 995.087 693.199 997.654 694.602C1000.22 696.006 1002.23 697.898 1003.69 700.281C1005.15 702.663 1005.88 705.312 1005.88 708.23C1005.88 710.317 1005.5 712.357 1004.75 714.352C1004.01 716.327 1002.71 718.534 1000.87 720.972C999.039 723.391 996.5 726.345 993.25 729.835L980.509 743.463V743.906H1006.88V750H971.091ZM1018.43 765.955V707.455H1024.74V714.213H1025.52C1026 713.474 1026.66 712.533 1027.51 711.388C1028.38 710.224 1029.62 709.19 1031.23 708.286C1032.85 707.362 1035.05 706.901 1037.82 706.901C1041.4 706.901 1044.56 707.796 1047.29 709.587C1050.02 711.379 1052.16 713.918 1053.69 717.205C1055.22 720.491 1055.99 724.369 1055.99 728.838C1055.99 733.344 1055.22 737.249 1053.69 740.555C1052.16 743.842 1050.03 746.39 1047.32 748.2C1044.6 749.991 1041.47 750.886 1037.93 750.886C1035.2 750.886 1033.01 750.434 1031.36 749.529C1029.72 748.606 1028.46 747.562 1027.57 746.399C1026.68 745.217 1026 744.239 1025.52 743.463H1024.97V765.955H1018.43ZM1024.85 728.727C1024.85 731.94 1025.33 734.775 1026.27 737.231C1027.21 739.668 1028.58 741.58 1030.39 742.964C1032.2 744.331 1034.42 745.014 1037.04 745.014C1039.77 745.014 1042.06 744.294 1043.88 742.854C1045.73 741.395 1047.12 739.437 1048.04 736.982C1048.98 734.507 1049.45 731.756 1049.45 728.727C1049.45 725.736 1048.99 723.04 1048.07 720.639C1047.16 718.22 1045.79 716.309 1043.94 714.906C1042.11 713.484 1039.81 712.773 1037.04 712.773C1034.38 712.773 1032.15 713.447 1030.34 714.795C1028.53 716.124 1027.16 717.989 1026.24 720.39C1025.32 722.772 1024.85 725.551 1024.85 728.727ZM1069.08 707.455L1079.28 724.849L1089.47 707.455H1097L1083.26 728.727L1097 750H1089.47L1079.28 733.491L1069.08 750H1061.55L1075.07 728.727L1061.55 707.455H1069.08ZM1120.29 726.068C1120.29 733.048 1119.38 739.474 1117.55 745.347C1115.74 751.2 1113.14 756.592 1109.77 761.523H1104C1105.33 759.695 1106.57 757.442 1107.72 754.764C1108.88 752.105 1109.89 749.187 1110.76 746.011C1111.63 742.817 1112.3 739.521 1112.78 736.123C1113.28 732.707 1113.53 729.355 1113.53 726.068C1113.53 721.673 1113.11 717.214 1112.26 712.69C1111.41 708.165 1110.26 703.964 1108.82 700.087C1107.38 696.209 1105.78 693.051 1104 690.614H1109.77C1113.14 695.544 1115.74 700.945 1117.55 706.817C1119.38 712.671 1120.29 719.088 1120.29 726.068ZM564.416 835V784.091H581.617C585.595 784.091 588.859 784.77 591.411 786.129C593.964 787.472 595.853 789.319 597.079 791.673C598.305 794.026 598.919 796.702 598.919 799.702C598.919 802.701 598.305 805.361 597.079 807.681C595.853 810.001 593.972 811.824 591.436 813.15C588.901 814.459 585.661 815.114 581.717 815.114H567.796V809.545H581.518C584.236 809.545 586.423 809.148 588.081 808.352C589.754 807.557 590.964 806.43 591.71 804.972C592.472 803.497 592.853 801.74 592.853 799.702C592.853 797.663 592.472 795.882 591.71 794.357C590.947 792.833 589.729 791.656 588.056 790.827C586.382 789.982 584.17 789.56 581.419 789.56H570.581V835H564.416ZM588.379 812.131L600.907 835H593.748L581.419 812.131H588.379ZM623.994 835.795C620.315 835.795 617.142 834.983 614.473 833.359C611.822 831.719 609.775 829.432 608.334 826.499C606.908 823.549 606.196 820.118 606.196 816.207C606.196 812.296 606.908 808.849 608.334 805.866C609.775 802.867 611.781 800.53 614.349 798.857C616.934 797.166 619.95 796.321 623.397 796.321C625.386 796.321 627.35 796.652 629.289 797.315C631.228 797.978 632.993 799.055 634.584 800.547C636.174 802.022 637.442 803.977 638.387 806.413C639.331 808.849 639.804 811.849 639.804 815.412V817.898H610.372V812.827H633.838C633.838 810.672 633.407 808.75 632.545 807.06C631.7 805.369 630.49 804.035 628.916 803.058C627.358 802.08 625.519 801.591 623.397 801.591C621.061 801.591 619.039 802.171 617.332 803.331C615.642 804.474 614.341 805.966 613.429 807.805C612.518 809.645 612.062 811.617 612.062 813.722V817.102C612.062 819.986 612.559 822.43 613.554 824.435C614.565 826.424 615.965 827.94 617.755 828.984C619.544 830.012 621.624 830.526 623.994 830.526C625.535 830.526 626.927 830.31 628.17 829.879C629.43 829.432 630.515 828.769 631.427 827.891C632.338 826.996 633.042 825.885 633.54 824.56L639.207 826.151C638.611 828.073 637.608 829.763 636.199 831.222C634.791 832.663 633.051 833.79 630.979 834.602C628.908 835.398 626.579 835.795 623.994 835.795ZM664.239 835.795C660.66 835.795 657.577 834.95 654.992 833.26C652.407 831.57 650.418 829.241 649.026 826.275C647.634 823.308 646.938 819.92 646.938 816.108C646.938 812.23 647.651 808.808 649.076 805.842C650.517 802.859 652.523 800.53 655.091 798.857C657.677 797.166 660.693 796.321 664.14 796.321C666.824 796.321 669.244 796.818 671.398 797.812C673.553 798.807 675.317 800.199 676.693 801.989C678.068 803.778 678.922 805.866 679.253 808.253H673.387C672.939 806.513 671.945 804.972 670.404 803.629C668.879 802.27 666.824 801.591 664.239 801.591C661.952 801.591 659.947 802.187 658.223 803.381C656.517 804.557 655.182 806.223 654.221 808.377C653.277 810.515 652.804 813.026 652.804 815.909C652.804 818.859 653.268 821.428 654.196 823.615C655.141 825.803 656.467 827.501 658.174 828.711C659.897 829.921 661.919 830.526 664.239 830.526C665.764 830.526 667.147 830.26 668.39 829.73C669.633 829.2 670.686 828.438 671.547 827.443C672.409 826.449 673.022 825.256 673.387 823.864H679.253C678.922 826.117 678.102 828.147 676.792 829.954C675.5 831.744 673.785 833.169 671.647 834.229C669.526 835.273 667.056 835.795 664.239 835.795ZM703.341 835.795C699.894 835.795 696.869 834.975 694.267 833.335C691.682 831.694 689.66 829.399 688.202 826.449C686.76 823.499 686.04 820.052 686.04 816.108C686.04 812.131 686.76 808.659 688.202 805.692C689.66 802.726 691.682 800.423 694.267 798.782C696.869 797.141 699.894 796.321 703.341 796.321C706.788 796.321 709.804 797.141 712.389 798.782C714.991 800.423 717.013 802.726 718.454 805.692C719.913 808.659 720.642 812.131 720.642 816.108C720.642 820.052 719.913 823.499 718.454 826.449C717.013 829.399 714.991 831.694 712.389 833.335C709.804 834.975 706.788 835.795 703.341 835.795ZM703.341 830.526C705.959 830.526 708.113 829.854 709.804 828.512C711.494 827.17 712.745 825.405 713.557 823.217C714.369 821.03 714.775 818.66 714.775 816.108C714.775 813.556 714.369 811.178 713.557 808.974C712.745 806.77 711.494 804.988 709.804 803.629C708.113 802.27 705.959 801.591 703.341 801.591C700.722 801.591 698.568 802.27 696.878 803.629C695.187 804.988 693.936 806.77 693.124 808.974C692.312 811.178 691.906 813.556 691.906 816.108C691.906 818.66 692.312 821.03 693.124 823.217C693.936 825.405 695.187 827.17 696.878 828.512C698.568 829.854 700.722 830.526 703.341 830.526ZM729.597 835V796.818H735.264V802.784H735.762C736.557 800.746 737.841 799.163 739.615 798.036C741.388 796.893 743.517 796.321 746.003 796.321C748.522 796.321 750.618 796.893 752.292 798.036C753.983 799.163 755.3 800.746 756.245 802.784H756.642C757.62 800.812 759.087 799.246 761.042 798.086C762.998 796.909 765.343 796.321 768.077 796.321C771.491 796.321 774.283 797.39 776.454 799.528C778.625 801.649 779.71 804.955 779.71 809.446V835H773.844V809.446C773.844 806.629 773.073 804.615 771.532 803.406C769.991 802.196 768.176 801.591 766.088 801.591C763.404 801.591 761.324 802.403 759.849 804.027C758.374 805.634 757.637 807.673 757.637 810.142V835H751.671V808.849C751.671 806.679 750.966 804.93 749.558 803.604C748.149 802.262 746.335 801.591 744.114 801.591C742.589 801.591 741.164 801.997 739.838 802.809C738.529 803.621 737.469 804.748 736.657 806.19C735.861 807.615 735.463 809.264 735.463 811.136V835H729.597ZM790.437 835V796.818H796.104V802.784H796.601C797.397 800.746 798.681 799.163 800.454 798.036C802.228 796.893 804.357 796.321 806.843 796.321C809.362 796.321 811.458 796.893 813.132 798.036C814.822 799.163 816.14 800.746 817.084 802.784H817.482C818.46 800.812 819.927 799.246 821.882 798.086C823.838 796.909 826.182 796.321 828.917 796.321C832.331 796.321 835.123 797.39 837.294 799.528C839.465 801.649 840.55 804.955 840.55 809.446V835H834.684V809.446C834.684 806.629 833.913 804.615 832.372 803.406C830.831 802.196 829.016 801.591 826.928 801.591C824.244 801.591 822.164 802.403 820.689 804.027C819.214 805.634 818.476 807.673 818.476 810.142V835H812.511V808.849C812.511 806.679 811.806 804.93 810.398 803.604C808.989 802.262 807.174 801.591 804.954 801.591C803.429 801.591 802.004 801.997 800.678 802.809C799.369 803.621 798.308 804.748 797.496 806.19C796.701 807.615 796.303 809.264 796.303 811.136V835H790.437ZM867.285 835.795C863.606 835.795 860.433 834.983 857.764 833.359C855.113 831.719 853.066 829.432 851.625 826.499C850.199 823.549 849.487 820.118 849.487 816.207C849.487 812.296 850.199 808.849 851.625 805.866C853.066 802.867 855.072 800.53 857.64 798.857C860.225 797.166 863.242 796.321 866.688 796.321C868.677 796.321 870.641 796.652 872.58 797.315C874.519 797.978 876.284 799.055 877.875 800.547C879.465 802.022 880.733 803.977 881.678 806.413C882.622 808.849 883.095 811.849 883.095 815.412V817.898H853.663V812.827H877.129C877.129 810.672 876.698 808.75 875.836 807.06C874.991 805.369 873.781 804.035 872.207 803.058C870.649 802.08 868.81 801.591 866.688 801.591C864.352 801.591 862.33 802.171 860.623 803.331C858.933 804.474 857.632 805.966 856.72 807.805C855.809 809.645 855.353 811.617 855.353 813.722V817.102C855.353 819.986 855.85 822.43 856.845 824.435C857.856 826.424 859.256 827.94 861.046 828.984C862.835 830.012 864.915 830.526 867.285 830.526C868.826 830.526 870.218 830.31 871.461 829.879C872.721 829.432 873.806 828.769 874.718 827.891C875.629 826.996 876.333 825.885 876.831 824.56L882.498 826.151C881.902 828.073 880.899 829.763 879.49 831.222C878.082 832.663 876.342 833.79 874.27 834.602C872.199 835.398 869.87 835.795 867.285 835.795ZM897.885 812.031V835H892.019V796.818H897.686V802.784H898.184C899.078 800.845 900.437 799.287 902.26 798.111C904.083 796.918 906.436 796.321 909.32 796.321C911.905 796.321 914.167 796.851 916.106 797.912C918.045 798.956 919.553 800.547 920.63 802.685C921.707 804.806 922.246 807.491 922.246 810.739V835H916.38V811.136C916.38 808.137 915.601 805.8 914.043 804.126C912.485 802.436 910.347 801.591 907.63 801.591C905.757 801.591 904.083 801.997 902.608 802.809C901.15 803.621 899.998 804.806 899.153 806.364C898.308 807.921 897.885 809.811 897.885 812.031ZM947.384 835.795C944.202 835.795 941.393 834.992 938.957 833.384C936.521 831.76 934.615 829.473 933.239 826.523C931.864 823.557 931.176 820.052 931.176 816.009C931.176 811.998 931.864 808.518 933.239 805.568C934.615 802.618 936.529 800.34 938.982 798.732C941.434 797.125 944.268 796.321 947.483 796.321C949.969 796.321 951.933 796.735 953.374 797.564C954.833 798.376 955.943 799.304 956.705 800.348C957.484 801.375 958.089 802.221 958.52 802.884H959.017V784.091H964.884V835H959.216V829.134H958.52C958.089 829.83 957.476 830.708 956.68 831.768C955.885 832.812 954.75 833.749 953.275 834.577C951.8 835.389 949.836 835.795 947.384 835.795ZM948.179 830.526C950.532 830.526 952.521 829.912 954.145 828.686C955.769 827.443 957.004 825.728 957.849 823.54C958.694 821.336 959.117 818.793 959.117 815.909C959.117 813.059 958.702 810.565 957.874 808.427C957.045 806.272 955.819 804.599 954.195 803.406C952.571 802.196 950.565 801.591 948.179 801.591C945.693 801.591 943.622 802.229 941.965 803.505C940.324 804.764 939.089 806.48 938.261 808.651C937.449 810.805 937.043 813.224 937.043 815.909C937.043 818.627 937.457 821.096 938.286 823.317C939.131 825.521 940.374 827.277 942.014 828.587C943.671 829.879 945.726 830.526 948.179 830.526ZM992.451 835.795C988.772 835.795 985.599 834.983 982.93 833.359C980.279 831.719 978.232 829.432 976.791 826.499C975.365 823.549 974.653 820.118 974.653 816.207C974.653 812.296 975.365 808.849 976.791 805.866C978.232 802.867 980.238 800.53 982.806 798.857C985.391 797.166 988.408 796.321 991.854 796.321C993.843 796.321 995.807 796.652 997.746 797.315C999.685 797.978 1001.45 799.055 1003.04 800.547C1004.63 802.022 1005.9 803.977 1006.84 806.413C1007.79 808.849 1008.26 811.849 1008.26 815.412V817.898H978.829V812.827H1002.29C1002.29 810.672 1001.86 808.75 1001 807.06C1000.16 805.369 998.947 804.035 997.373 803.058C995.815 802.08 993.976 801.591 991.854 801.591C989.518 801.591 987.496 802.171 985.789 803.331C984.099 804.474 982.798 805.966 981.886 807.805C980.975 809.645 980.519 811.617 980.519 813.722V817.102C980.519 819.986 981.016 822.43 982.011 824.435C983.022 826.424 984.422 827.94 986.212 828.984C988.002 830.012 990.081 830.526 992.451 830.526C993.992 830.526 995.384 830.31 996.627 829.879C997.887 829.432 998.972 828.769 999.884 827.891C1000.8 826.996 1001.5 825.885 1002 824.56L1007.66 826.151C1007.07 828.073 1006.06 829.763 1004.66 831.222C1003.25 832.663 1001.51 833.79 999.436 834.602C997.365 835.398 995.036 835.795 992.451 835.795ZM1031.6 835.795C1028.42 835.795 1025.61 834.992 1023.18 833.384C1020.74 831.76 1018.83 829.473 1017.46 826.523C1016.08 823.557 1015.39 820.052 1015.39 816.009C1015.39 811.998 1016.08 808.518 1017.46 805.568C1018.83 802.618 1020.75 800.34 1023.2 798.732C1025.65 797.125 1028.49 796.321 1031.7 796.321C1034.19 796.321 1036.15 796.735 1037.59 797.564C1039.05 798.376 1040.16 799.304 1040.92 800.348C1041.7 801.375 1042.31 802.221 1042.74 802.884H1043.24V784.091H1049.1V835H1043.43V829.134H1042.74C1042.31 829.83 1041.69 830.708 1040.9 831.768C1040.1 832.812 1038.97 833.749 1037.49 834.577C1036.02 835.389 1034.06 835.795 1031.6 835.795ZM1032.4 830.526C1034.75 830.526 1036.74 829.912 1038.36 828.686C1039.99 827.443 1041.22 825.728 1042.07 823.54C1042.91 821.336 1043.34 818.793 1043.34 815.909C1043.34 813.059 1042.92 810.565 1042.09 808.427C1041.26 806.272 1040.04 804.599 1038.41 803.406C1036.79 802.196 1034.78 801.591 1032.4 801.591C1029.91 801.591 1027.84 802.229 1026.18 803.505C1024.54 804.764 1023.31 806.48 1022.48 808.651C1021.67 810.805 1021.26 813.224 1021.26 815.909C1021.26 818.627 1021.68 821.096 1022.5 823.317C1023.35 825.521 1024.59 827.277 1026.23 828.587C1027.89 829.879 1029.95 830.526 1032.4 830.526ZM1108.99 796.818C1108.69 794.299 1107.48 792.344 1105.36 790.952C1103.23 789.56 1100.63 788.864 1097.55 788.864C1095.3 788.864 1093.32 789.228 1091.63 789.957C1089.96 790.687 1088.65 791.689 1087.71 792.965C1086.78 794.241 1086.31 795.691 1086.31 797.315C1086.31 798.674 1086.64 799.843 1087.28 800.82C1087.95 801.781 1088.79 802.585 1089.82 803.232C1090.85 803.861 1091.92 804.383 1093.05 804.798C1094.18 805.195 1095.21 805.518 1096.16 805.767L1101.33 807.159C1102.65 807.507 1104.13 807.988 1105.75 808.601C1107.39 809.214 1108.96 810.051 1110.45 811.112C1111.96 812.156 1113.2 813.498 1114.18 815.138C1115.16 816.779 1115.65 818.793 1115.65 821.179C1115.65 823.93 1114.93 826.416 1113.48 828.636C1112.06 830.857 1109.97 832.622 1107.22 833.931C1104.49 835.24 1101.16 835.895 1097.25 835.895C1093.61 835.895 1090.45 835.307 1087.78 834.13C1085.13 832.953 1083.04 831.313 1081.52 829.208C1080.01 827.103 1079.16 824.659 1078.96 821.875H1085.32C1085.49 823.797 1086.13 825.388 1087.26 826.648C1088.4 827.891 1089.84 828.819 1091.58 829.432C1093.34 830.028 1095.23 830.327 1097.25 830.327C1099.61 830.327 1101.72 829.946 1103.59 829.183C1105.46 828.404 1106.95 827.327 1108.04 825.952C1109.13 824.56 1109.68 822.936 1109.68 821.08C1109.68 819.389 1109.21 818.014 1108.26 816.953C1107.32 815.893 1106.08 815.031 1104.54 814.368C1102.99 813.705 1101.33 813.125 1099.54 812.628L1093.27 810.838C1089.3 809.695 1086.15 808.062 1083.83 805.941C1081.51 803.82 1080.35 801.044 1080.35 797.614C1080.35 794.763 1081.12 792.277 1082.66 790.156C1084.22 788.018 1086.31 786.361 1088.92 785.185C1091.56 783.991 1094.5 783.395 1097.75 783.395C1101.03 783.395 1103.95 783.983 1106.5 785.16C1109.05 786.32 1111.07 787.911 1112.56 789.933C1114.07 791.954 1114.87 794.25 1114.95 796.818H1108.99ZM1124.99 835V796.818H1130.85V835H1124.99ZM1127.97 790.455C1126.83 790.455 1125.84 790.065 1125.01 789.286C1124.2 788.507 1123.79 787.571 1123.79 786.477C1123.79 785.384 1124.2 784.447 1125.01 783.668C1125.84 782.889 1126.83 782.5 1127.97 782.5C1129.11 782.5 1130.09 782.889 1130.9 783.668C1131.73 784.447 1132.15 785.384 1132.15 786.477C1132.15 787.571 1131.73 788.507 1130.9 789.286C1130.09 790.065 1129.11 790.455 1127.97 790.455ZM1140.51 835V830.526L1162.18 802.685V802.287H1141.2V796.818H1169.74V801.491L1148.66 829.134V829.531H1170.43V835H1140.51ZM1194.38 835.795C1190.71 835.795 1187.53 834.983 1184.86 833.359C1182.21 831.719 1180.17 829.432 1178.72 826.499C1177.3 823.549 1176.59 820.118 1176.59 816.207C1176.59 812.296 1177.3 808.849 1178.72 805.866C1180.17 802.867 1182.17 800.53 1184.74 798.857C1187.33 797.166 1190.34 796.321 1193.79 796.321C1195.78 796.321 1197.74 796.652 1199.68 797.315C1201.62 797.978 1203.38 799.055 1204.97 800.547C1206.57 802.022 1207.83 803.977 1208.78 806.413C1209.72 808.849 1210.19 811.849 1210.19 815.412V817.898H1180.76V812.827H1204.23C1204.23 810.672 1203.8 808.75 1202.94 807.06C1202.09 805.369 1200.88 804.035 1199.31 803.058C1197.75 802.08 1195.91 801.591 1193.79 801.591C1191.45 801.591 1189.43 802.171 1187.72 803.331C1186.03 804.474 1184.73 805.966 1183.82 807.805C1182.91 809.645 1182.45 811.617 1182.45 813.722V817.102C1182.45 819.986 1182.95 822.43 1183.94 824.435C1184.96 826.424 1186.36 827.94 1188.15 828.984C1189.94 830.012 1192.01 830.526 1194.38 830.526C1195.93 830.526 1197.32 830.31 1198.56 829.879C1199.82 829.432 1200.91 828.769 1201.82 827.891C1202.73 826.996 1203.43 825.885 1203.93 824.56L1209.6 826.151C1209 828.073 1208 829.763 1206.59 831.222C1205.18 832.663 1203.44 833.79 1201.37 834.602C1199.3 835.398 1196.97 835.795 1194.38 835.795Z" fill="#475569" fill-opacity="0.85098"/>
</svg>
